<svg width="40" height="40" viewBox="0 0 40 40" fill="none" xmlns="http://www.w3.org/2000/svg">
<g opacity="0.68">
<path d="M20 40C31.0457 40 40 31.0457 40 20C40 8.95431 31.0457 0 20 0C8.9543 0 0 8.95431 0 20C0 31.0457 8.9543 40 20 40Z" fill="#ED6C30"/>
<path d="M11.8746 20.3206C14.8072 20.3206 17.1847 17.9432 17.1847 15.0105C17.1847 12.0778 14.8072 9.70038 11.8746 9.70038C8.94187 9.70038 6.56445 12.0778 6.56445 15.0105C6.56445 17.9432 8.94187 20.3206 11.8746 20.3206Z" fill="#F48263"/>
<path d="M4.80838 32.9896C12.4599 30.439 28.7666 23.3868 36.0558 8.08363C35.2335 6.98258 34.3136 5.9791 33.2962 5.07318C26.7317 20.669 9.24043 27.6098 2.55054 29.7561C3.19165 30.9129 3.94427 31.9861 4.80838 32.9896Z" fill="white"/>
<path d="M7.16376 35.3311C8.44599 36.4042 9.88153 37.3101 11.4146 38.0488C19.2056 35.6516 32.6411 29.7422 39.6794 16.4321C39.3449 14.5784 38.7596 12.8223 37.9512 11.1917C31.3031 28.1394 13.4913 33.8258 7.16376 35.3311Z" fill="white"/>
</g>
</svg>
