<svg width="203" height="80" viewBox="0 0 203 80" fill="none" xmlns="http://www.w3.org/2000/svg">
<path d="M22.4447 3.38883L2.38338 36.1487C1.43041 37.7049 1.40091 39.6567 2.3064 41.241L22.4478 76.4811C23.3381 78.0387 24.9947 79 26.7888 79H176.592C178.4 79 180.067 78.024 180.952 76.4475L200.734 41.2064C201.613 39.6397 201.585 37.7216 200.659 36.182L180.956 3.42299C180.052 1.91953 178.426 1 176.672 1H26.7087C24.9685 1 23.3534 1.90479 22.4447 3.38883Z" stroke="#CD8700" stroke-width="2"/>
<path d="M10.0712 35.9534L28.2731 10.5232C29.0242 9.47386 30.2353 8.85132 31.5258 8.85132H171.828C173.13 8.85132 174.351 9.48543 175.1 10.5509L192.976 35.9802C193.919 37.3219 193.948 39.1036 193.048 40.4749L175.09 67.8456C174.351 68.9725 173.093 69.6513 171.746 69.6513H31.608C30.272 69.6513 29.0241 68.9843 28.282 67.8733L9.99774 40.5035C9.07303 39.1193 9.10227 37.307 10.0712 35.9534Z" fill="#F6F6F6" stroke="#FFC93F" stroke-width="2"/>
<path d="M63.256 34.448L62.936 27.824L74.616 27.44L77.24 34.768L80.408 27.664L88.024 27.824L88.664 50.032H81.88L81.72 41.072L79.448 49.552L75.832 49.808L73.688 41.744L73.272 50.064L65.784 49.84L66.04 34.256L63.256 34.448ZM89.474 34.544L89.154 27.952L99.938 27.888L100.258 49.936L92.514 49.84L92.418 34.384L89.474 34.544ZM101.194 34.192L100.842 27.568L111.306 27.792L115.882 36.848L115.466 27.6L123.242 27.824L122.442 49.072L116.394 49.552L111.306 41.616L111.562 49.52L104.074 49.424V34.064L101.194 34.192ZM123.687 27.792C126.225 27.792 128.753 27.8027 131.271 27.824C133.809 27.8453 136.369 27.856 138.951 27.856L139.303 34.8L135.367 34.736L135.591 49.936L127.847 49.84L127.751 34.736H123.591L123.687 27.792Z" fill="#3D3D3D"/>
</svg>
