<svg width="350" height="423" viewBox="0 0 350 423" fill="none" xmlns="http://www.w3.org/2000/svg">
<g filter="url(#filter0_d_23_3094)">
<path d="M40.2379 50.3683C40.2379 47.0085 42.3091 44.1324 45.2443 42.9472C46.169 42.5738 47.1795 42.3683 48.2379 42.3683H286.238C290.656 42.3683 294.238 45.95 294.238 50.3683V370.368C294.238 373.727 292.168 376.602 289.235 377.788C288.309 378.162 287.298 378.368 286.238 378.368H48.2379C43.8196 378.368 40.2379 374.787 40.2379 370.368V50.3683Z" fill="black"/>
</g>
<path d="M310 44C310 39.5817 306.418 36 302 36L286.238 42.3683C290.656 42.3683 294.238 45.95 294.238 50.3683L310 44Z" fill="black"/>
<path d="M310 364V44L294.238 50.3683V370.368L310 364Z" fill="black"/>
<path d="M302 36H64L48.2379 42.3683H286.238L302 36Z" fill="black"/>
<path d="M304.997 371.42C307.93 370.234 310 367.359 310 364L294.238 370.368C294.238 373.727 292.168 376.602 289.235 377.788L304.997 371.42Z" fill="black"/>
<path d="M302 372C303.058 372 304.069 371.794 304.993 371.421L289.235 377.788C288.309 378.162 287.297 378.368 286.238 378.368L302 372Z" fill="black"/>
<path d="M61.0064 36.5789C61.9311 36.2056 62.9415 36 64 36L48.2379 42.3683C47.1794 42.3683 46.169 42.5739 45.2443 42.9472L61.0064 36.5789Z" fill="black"/>
<path d="M56 44.0001C56 40.6414 58.0698 37.7662 61.0033 36.5802L45.2443 42.9473C42.3091 44.1325 40.2379 47.0085 40.2379 50.3684L56 44.0001Z" fill="black"/>
<g filter="url(#filter1_d_23_3094)">
<path d="M64 372H302L286.238 378.368H48.2379L64 372Z" fill="black"/>
</g>
<g filter="url(#filter2_d_23_3094)">
<path d="M56 44V364L40.2379 370.368V50.3683L56 44Z" fill="black"/>
</g>
<g filter="url(#filter3_d_23_3094)">
<path d="M56 364C56 368.418 59.5818 372 64 372L48.2379 378.368C43.8196 378.368 40.2379 374.787 40.2379 370.368L56 364Z" fill="black"/>
</g>
<g filter="url(#filter4_d_23_3094)">
<rect x="56" y="36" width="254" height="336" rx="8" fill="url(#paint0_linear_23_3094)"/>
</g>
<path d="M294.398 162.619C287.704 174.762 279.907 192.755 277.008 199.584C277.306 198.423 277.693 197.016 278.144 195.62C279.173 192.314 280.544 189.11 280.544 189.11C280.544 189.11 278.819 192.138 277.404 195.341C276.231 197.928 275.274 200.613 274.954 201.534C273.785 201.191 272.613 200.973 271.591 200.835L273.153 193.1L269.971 199.113C270.979 195.48 273.098 188.761 276.941 180.205C282.826 167.106 287.92 158.373 289.325 157.675C289.441 157.617 289.575 157.59 289.719 157.581L283.927 172.128L291.158 157.99C292.697 158.816 294.419 160.721 294.419 162.303C294.419 162.398 294.411 162.505 294.398 162.619ZM277.425 207.625C277.354 208.046 277.316 208.52 277.29 209.013L277.273 208.983C276.989 208.559 276.514 208.164 275.954 207.921C275.393 207.675 274.804 207.494 274.206 207.31C273.599 207.164 272.987 207.042 272.411 206.947C271.834 206.85 271.284 206.836 270.819 206.808C270.353 206.783 269.961 206.82 269.69 206.828C269.417 206.854 269.262 206.869 269.262 206.869C269.262 206.869 269.413 206.908 269.677 206.976C269.942 207.03 270.315 207.141 270.763 207.235C271.213 207.325 271.727 207.476 272.282 207.599C272.838 207.723 273.425 207.874 274.005 208.05C274.591 208.194 275.189 208.345 275.695 208.535C276.198 208.727 276.652 208.939 276.931 209.248C277.068 209.393 277.177 209.544 277.259 209.69C277.229 210.501 277.205 211.321 277.111 212.018C277.079 211.956 277.052 211.894 277.01 211.832C276.725 211.408 276.251 211.013 275.69 210.77C275.129 210.524 274.541 210.343 273.943 210.159C273.336 210.013 272.724 209.891 272.147 209.796C271.57 209.699 271.021 209.686 270.556 209.657C270.09 209.632 269.697 209.67 269.426 209.677C269.154 209.703 268.998 209.719 268.998 209.719C268.998 209.719 269.149 209.757 269.414 209.826C269.678 209.879 270.051 209.991 270.5 210.084C270.95 210.174 271.464 210.326 272.019 210.448C272.574 210.572 273.162 210.724 273.741 210.899C274.327 211.043 274.926 211.194 275.432 211.384C275.935 211.576 276.388 211.788 276.667 212.098C276.813 212.251 276.928 212.412 277.012 212.567C276.883 213.13 276.677 213.558 276.327 213.738C276.005 213.905 275.598 214.031 275.176 214.128C275.175 214.04 275.157 213.952 275.118 213.869C275.003 213.623 274.745 213.479 274.5 213.359C272.378 212.319 268.219 212.023 265.96 212.978C265.683 212.819 265.342 212.692 265.045 212.603C264.876 212.551 264.722 212.504 264.6 212.458C264.475 212.406 264.397 212.383 264.293 212.292C264.087 212.122 263.864 211.659 263.655 211.232C263.24 210.37 262.912 209.451 262.713 208.744C262.512 208.036 262.421 207.547 262.421 207.547C262.421 207.547 262.363 208.038 262.346 208.79C262.326 209.54 262.367 210.553 262.518 211.569C262.608 212.071 262.64 212.571 262.938 213.177C263.086 213.473 263.34 213.759 263.563 213.946C263.638 214.011 263.707 214.061 263.777 214.113C263.678 214.169 263.578 214.226 263.482 214.282L263.455 214.263C263.2 214.112 262.984 214.037 262.807 213.977L262.387 213.845C262.278 213.806 262.261 213.824 262.2 213.792C262.168 213.776 262.137 213.753 262.108 213.723C262.076 213.68 262.041 213.607 262.009 213.52C261.946 213.345 261.882 213.098 261.819 212.885L261.437 211.563L260.674 208.919L260.589 211.669L260.547 213.043C260.542 213.28 260.528 213.483 260.532 213.755C260.537 213.892 260.548 214.042 260.584 214.214C260.626 214.4 260.693 214.584 260.788 214.755C260.927 215.013 261.183 215.265 261.372 215.413C261.425 215.455 261.472 215.488 261.521 215.525C260.879 215.965 260.272 216.413 259.662 216.88C259.505 216.747 259.354 216.61 259.225 216.462C258.768 215.939 258.456 215.227 258.296 214.346C258.153 213.568 258.143 212.741 258.141 211.932L258.19 211.904C260.035 210.769 260.518 208.018 261.44 206.708C262.342 205.428 264.197 203.252 268.899 202.176C270.125 202.224 274.026 202.492 276.786 203.937C276.979 204.324 277.299 205.079 277.431 206.002C277.142 205.63 276.718 205.289 276.217 205.072C275.656 204.826 275.068 204.645 274.47 204.461C273.863 204.314 273.25 204.193 272.674 204.098C272.097 204.001 271.548 203.987 271.083 203.959C270.617 203.934 270.225 203.971 269.953 203.979C269.681 204.005 269.525 204.02 269.525 204.02C269.525 204.02 269.676 204.059 269.941 204.127C270.205 204.181 270.578 204.292 271.027 204.385C271.476 204.476 271.991 204.627 272.546 204.75C273.101 204.874 273.689 205.025 274.268 205.201C274.854 205.345 275.453 205.496 275.959 205.686C276.462 205.878 276.915 206.09 277.194 206.399C277.315 206.527 277.411 206.66 277.49 206.79C277.491 207.062 277.472 207.341 277.425 207.625ZM272.462 219.415C271.848 221.816 272.199 223.999 270.882 225.484C270.555 225.851 270.275 226.209 270.019 226.539C269.834 226.384 269.594 226.227 269.279 226.065C268.516 225.674 267.631 225.655 266.778 225.568C265.925 225.481 264.984 225.202 264.582 224.448C264.329 223.972 264.367 223.364 264.656 222.911C264.928 222.829 265.246 222.799 265.587 222.774C265.978 222.746 266.414 222.773 266.852 222.82C267.29 222.832 267.732 222.871 268.146 222.921C268.559 222.973 268.957 222.978 269.294 223.017C269.631 223.053 269.924 223.042 270.124 223.056C270.328 223.054 270.444 223.053 270.444 223.053C270.444 223.053 270.34 223.001 270.157 222.91C269.971 222.836 269.712 222.699 269.384 222.595C269.056 222.494 268.677 222.344 268.252 222.264C267.827 222.18 267.369 222.104 266.904 222.056C266.439 222.042 265.965 222.046 265.512 222.114C265.181 222.161 264.876 222.276 264.614 222.409C264.262 221.768 264.281 220.918 264.662 220.294C264.933 220.214 265.249 220.184 265.587 220.16C265.978 220.131 266.414 220.159 266.852 220.206C267.29 220.218 267.732 220.257 268.146 220.306C268.559 220.359 268.957 220.364 269.294 220.403C269.631 220.439 269.924 220.427 270.124 220.441C270.328 220.44 270.444 220.439 270.444 220.439C270.444 220.439 270.34 220.387 270.157 220.296C269.971 220.221 269.712 220.084 269.384 219.98C269.056 219.88 268.677 219.73 268.252 219.649C267.827 219.566 267.369 219.49 266.904 219.442C266.439 219.427 265.965 219.432 265.512 219.5C265.174 219.547 264.862 219.665 264.596 219.803C264.332 219.528 264.124 219.175 264.084 218.815C264.032 218.354 264.177 217.877 264.47 217.517C264.536 217.49 264.605 217.463 264.676 217.437C264.971 217.323 265.336 217.292 265.727 217.264C266.118 217.235 266.554 217.262 266.992 217.31C267.43 217.322 267.872 217.361 268.286 217.41C268.699 217.463 269.098 217.468 269.434 217.506C269.771 217.542 270.064 217.531 270.264 217.545C270.468 217.544 270.584 217.542 270.584 217.542C270.584 217.542 270.48 217.491 270.297 217.4C270.111 217.325 269.852 217.188 269.524 217.084C269.196 216.983 268.817 216.834 268.392 216.753C267.967 216.67 267.509 216.593 267.044 216.545C266.579 216.531 266.105 216.536 265.652 216.604C265.198 216.667 264.79 216.858 264.481 217.053C264.428 217.086 264.384 217.123 264.338 217.158C264.282 216.986 264.265 216.809 264.269 216.631C265.441 215.557 266.596 214.796 268.172 214.681C270.011 214.549 271.716 215.039 272.867 215.499C272.883 216.471 272.832 217.972 272.462 219.415ZM266.754 228.904C266.607 228.904 266.455 228.892 266.299 228.866C265.383 228.717 264.711 228.167 264.798 227.635C264.871 227.195 265.444 226.906 266.16 226.906C266.307 226.906 266.459 226.918 266.615 226.944C267.531 227.093 268.203 227.643 268.116 228.174C268.044 228.615 267.471 228.904 266.754 228.904ZM266.651 233.493C266.517 234.924 266.218 236.961 265.649 238.491C265.345 238.985 264.955 239.409 264.435 239.663C263.636 240.053 262.686 239.971 261.818 239.771C261.124 239.612 260.446 239.381 259.798 239.087C258.93 238.693 258.156 238.179 257.437 237.589C257.485 237.61 257.532 237.632 257.58 237.653C258.879 238.233 260.201 238.726 260.201 238.726C260.201 238.726 259.077 237.874 258.019 236.962C257.439 236.469 256.886 235.965 256.497 235.602C256.574 233.01 257.296 229.997 259.779 227.949C260.239 228.154 260.518 228.278 260.518 228.278L260.516 228.252C261.216 228.741 262.084 229.218 263.073 229.491C264.174 229.795 265.337 229.897 266.317 229.92L265.738 234.387L266.886 231.877C266.785 232.419 266.699 232.971 266.651 233.493ZM255.158 233.584C255.092 234.214 255.059 234.847 255.059 235.443C255.07 236.037 255.039 236.599 255.077 237.079C255.103 237.559 255.103 237.968 255.132 238.25C255.144 238.537 255.152 238.701 255.152 238.701C255.152 238.701 255.09 238.549 254.982 238.281C254.891 238.01 254.737 237.622 254.638 237.138C254.533 236.655 254.417 236.085 254.375 235.465C254.355 235.1 254.349 234.72 254.352 234.334C254.04 234.183 253.743 234.048 253.558 233.934C251.075 232.405 248.796 230.55 246.793 228.436C248.984 227.489 251.446 226.366 253.624 225.211C255.232 225.925 256.903 226.668 258.199 227.246C256.539 228.833 255.66 230.781 255.235 232.715C255.203 233.002 255.176 233.292 255.158 233.584ZM254.695 258.356C254.752 258.871 254.785 259.166 254.785 259.166C254.785 259.166 254.716 258.878 254.594 258.374C254.483 257.868 254.306 257.148 254.144 256.275C253.98 255.402 253.78 254.384 253.617 253.286C253.454 252.188 253.294 251.014 253.147 249.839C253.027 248.661 252.919 247.481 252.831 246.375C252.745 245.268 252.71 244.231 252.674 243.344C252.636 242.457 252.646 241.716 252.641 241.198C252.646 240.68 252.65 240.384 252.65 240.384C252.65 240.384 252.683 240.678 252.743 241.193C252.797 241.707 252.875 242.443 252.969 243.324C253.061 244.205 253.17 245.233 253.285 246.334C253.396 247.436 253.527 248.609 253.67 249.78C253.793 250.954 253.93 252.126 254.07 253.224C254.204 254.323 254.33 255.349 254.437 256.228C254.543 257.108 254.633 257.843 254.695 258.356ZM255.065 271.331C255.116 271.88 255.162 272.5 255.177 273.178C255.235 274.534 255.229 276.119 255.131 277.815C255.013 279.509 254.804 281.31 254.514 283.099C254.179 284.881 253.765 286.647 253.3 288.281C252.815 289.909 252.284 291.404 251.769 292.661C251.525 293.294 251.271 293.862 251.036 294.362C250.809 294.864 250.604 295.298 250.423 295.651C250.063 296.354 249.857 296.757 249.857 296.757C249.857 296.757 250.029 296.339 250.33 295.609C250.491 295.249 250.663 294.801 250.855 294.286C251.055 293.775 251.271 293.195 251.492 292.557C251.964 291.292 252.399 289.778 252.86 288.159C253.3 286.533 253.688 284.778 253.996 283.01C254.306 281.242 254.537 279.46 254.675 277.782C254.789 276.103 254.895 274.532 254.88 273.183C254.889 272.508 254.882 271.89 254.868 271.341C254.862 270.792 254.853 270.313 254.824 269.92C254.788 269.132 254.768 268.681 254.768 268.681C254.768 268.681 254.825 269.129 254.925 269.912C254.976 270.305 255.022 270.782 255.065 271.331ZM249.177 289.7C249.045 289.591 248.84 289.452 248.618 289.265C248.398 289.075 248.118 288.88 247.845 288.644C247.57 288.412 247.269 288.171 246.964 287.938C246.716 287.727 246.464 287.523 246.218 287.331C245.425 290.657 244.632 293.983 243.838 297.309C243.596 297.257 243.35 297.205 243.098 297.153L244.481 285.841C245.038 286.073 245.53 286.327 245.927 286.603C246.067 286.681 246.21 286.763 246.353 286.859C246.659 287.066 246.98 287.295 247.295 287.531C247.594 287.789 247.886 288.053 248.152 288.307C248.419 288.562 248.636 288.833 248.827 289.056C249.02 289.279 249.151 289.492 249.252 289.631C249.344 289.777 249.397 289.861 249.397 289.861C249.397 289.861 249.317 289.802 249.177 289.7ZM255.588 327.06L246.236 321.858C246.316 321.486 246.397 321.116 246.48 320.746C248.446 321.819 252.69 324.289 255.588 327.06ZM249.239 315.543C249.408 315.628 249.671 315.728 249.978 315.906C250.605 316.238 251.466 316.786 252.411 317.555C253.356 318.322 254.398 319.285 255.49 320.326C256.584 321.362 257.768 322.451 259.093 323.327C260.396 324.231 261.865 324.883 263.278 325.397C264.691 325.911 266.037 326.351 267.185 326.744C268.336 327.133 269.272 327.528 269.918 327.82C270.241 327.964 270.487 328.095 270.657 328.179C270.826 328.264 270.916 328.31 270.916 328.31C270.916 328.31 270.822 328.273 270.646 328.203C270.469 328.135 270.213 328.028 269.878 327.914C269.219 327.662 268.255 327.368 267.094 327.025C265.936 326.673 264.563 326.33 263.122 325.824C261.685 325.325 260.164 324.678 258.797 323.76C257.44 322.833 256.256 321.707 255.173 320.652C254.091 319.593 253.125 318.57 252.219 317.778C251.317 316.984 250.528 316.36 249.925 315.993C249.638 315.788 249.388 315.667 249.227 315.567C249.063 315.471 248.976 315.421 248.976 315.421C248.976 315.421 249.068 315.463 249.239 315.543ZM267.129 339.934L245.03 328.051C245.131 327.474 245.239 326.879 245.351 326.274L268.121 338.279C267.873 338.921 267.536 339.489 267.129 339.934ZM265.735 343.216C264.669 344.891 263.39 346.478 261.8 347.655C261.474 347.705 261.141 347.751 260.807 347.793C258.008 348.176 255.134 348.166 255.134 348.166C255.134 348.166 257.12 348.637 259.48 348.949C258.093 349.473 256.567 349.651 255.144 349.358C254.917 349.254 254.747 349.138 254.655 349.008C253.733 347.698 254.787 344.947 257.159 344.816C258.04 344.767 258.666 344.329 259.105 343.798L262.912 343.559L260.869 342.85C262.122 342.525 263.702 342.226 264.642 342.415C265.183 342.525 265.734 342.491 266.274 342.327C266.101 342.625 265.923 342.921 265.735 343.216ZM258.018 340.36C257.972 340.488 257.928 340.612 257.885 340.729C257.81 340.694 257.732 340.657 257.654 340.62L259.606 337.08L266.238 340.647C265.895 340.831 265.448 340.974 264.957 340.875C264.625 340.808 264.252 340.786 263.861 340.791C264.122 340.733 264.367 340.658 264.58 340.605C264.826 340.542 265.027 340.458 265.169 340.413C265.31 340.358 265.39 340.326 265.39 340.326C265.39 340.326 265.304 340.321 265.153 340.313C265.098 340.313 265.034 340.312 264.962 340.31C264.839 340.307 264.694 340.303 264.533 340.314C264.279 340.333 263.979 340.331 263.665 340.372C263.35 340.411 263.015 340.453 262.679 340.495C262.347 340.56 262.016 340.625 261.705 340.686C261.393 340.746 261.11 340.841 260.863 340.902C260.616 340.966 260.416 341.049 260.273 341.094C260.132 341.149 260.052 341.18 260.052 341.18C260.052 341.18 260.138 341.185 260.29 341.194C260.344 341.193 260.408 341.195 260.48 341.196C260.603 341.199 260.749 341.202 260.91 341.192C260.951 341.189 261.001 341.187 261.045 341.185C260.517 341.308 260.034 341.44 259.653 341.554C259.4 341.438 259.038 341.271 258.58 341.057C258.651 340.986 258.721 340.914 258.796 340.838C258.955 340.62 259.126 340.386 259.296 340.153C259.421 339.893 259.546 339.633 259.663 339.389C259.744 339.126 259.82 338.88 259.885 338.67C259.918 338.443 259.945 338.255 259.964 338.123C259.966 337.983 259.967 337.903 259.967 337.903C259.967 337.903 259.901 337.948 259.784 338.027C259.683 338.114 259.54 338.237 259.367 338.386C259.222 338.547 259.052 338.736 258.871 338.938C258.718 339.155 258.554 339.386 258.391 339.617C258.264 339.87 258.138 340.123 258.018 340.36ZM256.703 340.165C253.357 338.554 248.158 335.933 244.177 333.393C244.233 333 244.294 332.575 244.364 332.117L257.362 338.969L256.703 340.165ZM244.841 329.141L258.679 336.582L257.869 338.05L244.533 331.02C244.627 330.428 244.73 329.798 244.841 329.141ZM246.008 322.932L257.652 329.409C259.336 331.519 261.801 333.446 264.002 334.921L245.556 325.195C245.699 324.45 245.85 323.693 246.008 322.932ZM243.46 332.338C243.011 334.444 242.543 336.399 242.141 338.074C241.742 339.75 241.363 341.135 241.11 342.107C240.845 343.077 240.694 343.631 240.694 343.631C240.694 343.631 240.809 343.068 241.011 342.084C241.214 341.101 241.504 339.695 241.852 338.01C242.212 336.327 242.584 334.354 243.013 332.246C243.436 330.138 243.865 327.884 244.275 325.628C244.702 323.374 245.109 321.116 245.472 318.997C245.826 316.876 246.188 314.901 246.456 313.201C246.736 311.503 246.969 310.087 247.132 309.096C247.297 308.105 247.392 307.539 247.392 307.539C247.392 307.539 247.334 308.11 247.234 309.11C247.122 310.108 246.979 311.537 246.749 313.244C246.524 314.951 246.261 316.944 245.922 319.07C245.582 321.196 245.197 323.461 244.792 325.722C244.359 327.979 243.905 330.23 243.46 332.338ZM238.093 336.482C238.034 336.78 237.971 337.077 237.91 337.374L236.924 337.202L241.973 308.502C242.35 308.617 242.716 308.735 243.066 308.855C242.428 312.767 241.765 316.674 241.072 320.577C240.129 325.888 239.136 331.19 238.093 336.482ZM236.49 344.415C236.404 344.91 236.356 345.254 236.326 345.583C235.695 345.032 235.021 344.355 234.403 343.55C234.119 343.181 233.763 342.785 233.33 342.413C233.402 342.444 233.482 342.474 233.548 342.506C233.879 342.619 234.151 342.735 234.34 342.821C234.541 342.895 234.656 342.936 234.656 342.936C234.656 342.936 234.586 342.836 234.464 342.659C234.33 342.497 234.13 342.268 233.868 342.009C233.592 341.772 233.248 341.522 232.865 341.265C232.463 341.047 232.02 340.839 231.563 340.658C231.089 340.528 230.61 340.426 230.157 340.358C229.696 340.333 229.27 340.325 228.906 340.348C228.54 340.396 228.242 340.458 228.036 340.506C227.831 340.572 227.714 340.611 227.714 340.611C227.714 340.611 227.831 340.646 228.036 340.708C228.194 340.743 228.404 340.795 228.646 340.868C228.083 340.902 227.479 341.002 226.832 341.179L227.504 336.618L237.701 338.402C237.281 340.404 236.84 342.404 236.49 344.415ZM232.103 349.316C231.975 349.442 231.841 349.562 231.703 349.678C230.88 349.414 229.695 349.002 228.534 348.493C226.445 347.611 224.479 346.426 224.479 346.426C224.479 346.426 226.208 347.929 228.158 349.184C228.88 349.663 229.628 350.104 230.283 350.468C230.153 350.504 230.021 350.534 229.885 350.55C228.79 350.681 227.75 350.105 226.799 349.549C225.731 348.924 224.661 348.281 223.718 347.485C223.454 347.244 223.253 347.044 223.148 346.912C222.32 345.872 223.523 344.576 224.657 343.788C228.352 341.74 231.207 341.977 233.147 344.504C233.498 344.962 233.864 345.378 234.23 345.76C233.832 347.096 233.097 348.333 232.103 349.316ZM224.158 340.712C224.525 338.375 225.721 328.927 226.103 325.895L226.104 325.895L228.918 308.392C229.147 308.316 229.777 308.118 230.67 307.914L225.712 341.553C225.185 341.758 224.632 342.014 224.053 342.326C224.028 341.914 224.051 341.388 224.158 340.712ZM223.62 322.833C224.059 322.642 224.576 322.367 225.133 321.98L224.835 323.833C224.477 323.541 224.068 323.205 223.62 322.833ZM215.507 314.863C215.24 314.34 215.343 313.882 215.683 313.483L223.825 321.56C223.383 321.804 222.999 321.961 222.702 322.062C219.907 319.696 216.335 316.484 215.507 314.863ZM218.188 312.127L225.543 319.424L225.378 320.454C225.158 320.648 224.941 320.824 224.731 320.978L216.518 312.832C216.992 312.561 217.571 312.327 218.188 312.127ZM221.371 311.375L226.085 316.053L225.749 318.147L219.347 311.797C220.068 311.616 220.776 311.477 221.371 311.375ZM226.861 311.225L226.29 314.776L222.716 311.23C223.685 311.188 225.23 311.151 226.861 311.225ZM239.626 296.566L240.975 284.856C241.858 285.014 242.701 285.22 243.465 285.466L242.061 296.953C241.276 296.809 240.459 296.676 239.626 296.566ZM237.214 284.495C238.116 284.508 239.034 284.577 239.933 284.696L238.58 296.441C238.2 296.4 237.818 296.364 237.436 296.335C236.964 296.3 236.514 296.286 236.074 296.281L237.214 284.495ZM235.014 296.298C234.223 296.331 233.492 296.408 232.825 296.516L233.932 284.74C234.029 284.722 234.122 284.702 234.223 284.686C234.834 284.588 235.485 284.533 236.154 284.507L235.014 296.298ZM230.295 291.073C230.21 289.202 230.137 287.586 230.985 286.168C231.27 285.69 231.92 285.293 232.849 285.003L231.746 296.723C230.925 296.909 230.234 297.131 229.668 297.347C230.461 295.03 230.378 292.934 230.295 291.073ZM228.772 300.664C228.834 300.234 228.916 299.799 229.024 299.359C229.846 298.91 232.747 297.554 237.315 297.903C237.515 297.918 237.716 297.936 237.916 297.955C238.245 297.955 238.589 297.963 238.945 297.984C239.697 298.035 240.496 298.118 241.293 298.23C242.085 298.372 242.87 298.543 243.6 298.729C244.328 298.921 244.992 299.154 245.556 299.361C246.122 299.563 246.575 299.782 246.894 299.924C247.208 300.078 247.388 300.166 247.388 300.166C247.388 300.166 247.196 300.113 246.858 300.02C246.525 299.917 246.04 299.797 245.466 299.642C244.958 299.496 244.36 299.372 243.728 299.226C243.667 299.64 243.612 300.051 243.564 300.455C238.742 299.162 233.554 299.224 228.772 300.664ZM228.615 303.558C228.597 303.011 228.603 302.424 228.646 301.808C233.413 300.278 238.626 300.186 243.45 301.513C243.392 302.105 243.34 302.703 243.292 303.335L243.288 303.374C238.503 302.096 233.363 302.144 228.615 303.558ZM238.611 307.679C239.417 307.824 240.203 308.006 240.955 308.209L235.886 337.02L233.723 336.642L238.611 307.679ZM229.599 335.92L227.658 335.581L231.768 307.689C232.409 307.573 233.121 307.472 233.876 307.411L229.599 335.92ZM234.95 307.36C235.548 307.347 236.158 307.361 236.772 307.42C237.039 307.446 237.305 307.479 237.57 307.515L232.684 336.46L230.637 336.102L234.95 307.36ZM243.04 307.181C241.237 306.597 239.118 306.069 236.926 305.856C233.593 305.533 230.382 306.314 228.996 306.721C228.911 306.337 228.768 305.601 228.68 304.634C233.362 303.188 238.456 303.133 243.181 304.43C243.07 305.373 242.96 306.247 243.04 307.181ZM219.349 294.712C219.219 293.134 219.096 291.649 218.987 290.225C219.115 291.108 219.302 291.968 219.457 292.806C219.649 293.716 219.849 294.592 220.073 295.415C220.283 296.24 220.507 297.014 220.738 297.721C220.954 298.432 221.178 299.075 221.39 299.641C221.595 300.209 221.783 300.699 221.956 301.098C222.299 301.893 222.495 302.348 222.495 302.348C222.495 302.348 222.143 300.406 221.616 297.509C221.495 296.785 221.363 296.002 221.223 295.174C221.078 294.349 220.977 293.469 220.825 292.569C220.707 291.664 220.585 290.728 220.461 289.777C220.328 288.828 220.241 287.859 220.138 286.891C220.045 285.923 219.937 284.955 219.877 283.999C219.807 283.042 219.738 282.101 219.671 281.19C219.571 279.366 219.477 277.658 219.429 276.19C219.378 274.719 219.336 273.492 219.306 272.631C219.298 272.433 219.291 272.257 219.284 272.099C223.275 271.839 226.787 269.807 230.185 267.835C232.881 266.27 235.427 264.793 238.115 264.207C240.723 263.638 243.367 263.065 245.859 262.806C245.095 263.229 244.322 263.677 243.557 264.159C242.548 264.859 241.569 265.597 240.671 266.309C239.802 267.06 239.004 267.77 238.341 268.4C237.695 269.05 237.169 269.601 236.805 269.99C236.452 270.392 236.251 270.622 236.251 270.622C236.251 270.622 236.502 270.447 236.941 270.141C237.366 269.822 237.98 269.372 238.724 268.848C239.443 268.293 240.302 267.675 241.228 267.028C242.14 266.362 243.128 265.676 244.14 265.03C245.13 264.352 246.146 263.712 247.12 263.147C247.392 262.983 247.658 262.825 247.92 262.671C248.036 262.669 248.153 262.664 248.268 262.663C249.469 269.774 248.57 276.857 247.013 283.908L247.214 279.776L245.667 284.654C242.519 283.15 237.403 282.584 233.971 283.134C233.456 283.217 232.985 283.323 232.551 283.448C232.532 282.787 232.522 281.918 232.538 281.047C232.553 280.156 232.601 279.265 232.677 278.6C232.749 277.935 232.847 277.495 232.847 277.495C232.847 277.495 232.655 277.902 232.435 278.547C232.213 279.189 231.967 280.064 231.754 280.946C231.539 281.828 231.352 282.716 231.223 283.386C231.177 283.635 231.137 283.852 231.105 284.029C230.442 284.39 229.943 284.834 229.626 285.365C228.536 287.186 228.623 289.109 228.715 291.143C228.801 293.065 228.892 295.052 228.032 297.249C226.287 301.71 227.263 306.31 227.498 307.263L227.242 308.856C227.168 308.84 227.091 308.824 227.009 308.813C226.751 308.77 226.469 308.772 226.196 308.808C225.922 308.836 225.63 308.865 225.338 308.895C224.243 309.069 223.148 309.243 223.148 309.243C223.148 309.243 224.011 309.417 224.969 309.61C223.903 309.608 222.988 309.641 222.375 309.671C221.531 307.156 219.922 301.641 219.349 294.712ZM217.044 262.227C216.714 253.385 217.439 252.271 213.948 245.46C212.723 243.07 211.523 241.277 210.5 239.649C211.192 239.931 211.974 240.222 212.77 240.468C213.996 240.85 215.236 241.109 216.161 241.271C217.086 241.425 217.702 241.527 217.702 241.527C217.702 241.527 217.136 241.269 216.286 240.881C215.441 240.486 214.342 239.927 213.32 239.277C212.715 238.895 212.141 238.487 211.621 238.097C212.582 238.112 213.563 238.03 214.567 237.944C216.06 237.816 217.606 237.683 219.239 237.863L219.933 237.941C222.868 238.268 225.353 238.515 227.263 238.515C229.533 238.515 230.99 238.165 231.424 237.184C231.576 236.842 231.636 236.456 231.647 236.027C234.753 234.772 237.52 234.746 240.687 233.989C240.197 236.316 239.156 241.039 237.848 245.714C236.065 252.281 233.762 258.716 233.762 258.716C233.762 258.716 236.675 252.533 239.1 246.121C240.714 241.954 242.113 237.704 242.892 235.25C244.959 240.249 246.17 244.878 246.983 249.681C246.83 250.297 246.658 250.933 246.466 251.568C246.28 252.324 246.073 253.074 245.856 253.773C245.669 254.481 245.482 255.141 245.298 255.701C245.151 256.275 245.011 256.75 244.91 257.082C244.823 257.422 244.774 257.617 244.774 257.617C244.774 257.617 244.891 257.453 245.095 257.166C245.283 256.871 245.547 256.446 245.846 255.923C246.12 255.39 246.415 254.755 246.719 254.067C246.944 253.472 247.162 252.834 247.369 252.187C247.734 254.771 248.014 257.434 248.27 260.251C249.188 260.36 250.03 260.59 250.74 260.809C251.536 261.062 252.147 261.402 252.568 261.631C252.982 261.878 253.207 262.034 253.207 262.034C253.207 262.034 252.944 261.95 252.483 261.834C252.032 261.693 251.365 261.573 250.584 261.428C249.8 261.281 248.872 261.237 247.888 261.193C246.945 261.155 245.939 261.204 244.937 261.326C242.598 261.622 240.172 262.15 237.777 262.672C234.845 263.31 232.071 264.921 229.388 266.478C226.618 268.085 223.768 269.735 220.734 270.328C221.014 269.789 221.351 269.119 221.721 268.346C222.736 266.26 223.952 263.416 224.947 260.505C225.942 257.593 226.709 254.622 227.156 252.375C227.389 251.253 227.55 250.314 227.653 249.655C227.756 248.997 227.815 248.621 227.815 248.621C227.815 248.621 227.716 248.988 227.542 249.631C227.369 250.274 227.108 251.188 226.758 252.272C226.419 253.359 225.97 254.609 225.467 255.935C224.95 257.258 224.358 258.649 223.724 260.018C222.444 262.754 220.968 265.38 219.769 267.288C219.205 268.201 218.713 268.947 218.348 269.487C217.799 268.43 217.202 266.467 217.044 262.227ZM209.058 234.286C208.536 234.031 208.068 233.627 207.745 233.145C207.585 232.096 207.537 230.93 207.624 229.577C207.859 225.963 209.434 223.449 211.265 221.784L211.268 221.791C212.951 221.057 215.221 221.54 217.623 222.05C219.329 222.411 221.084 222.778 222.808 222.76C225.524 222.719 229.362 222.322 231.01 222.139C231.064 223.117 231.018 225.042 230.21 227.589C229.844 228.745 229.712 229.861 229.69 230.901C229.698 231.213 229.718 231.53 229.753 231.845C229.79 232.487 229.887 233.117 230.015 233.723C230.141 234.329 230.211 234.921 230.251 235.432C230.294 235.944 230.223 236.377 230.172 236.668C230.139 236.814 230.107 236.926 230.081 237.001C230.057 237.077 230.044 237.117 230.044 237.117C230.044 237.117 230.043 237.075 230.041 236.996C230.041 236.917 230.035 236.802 230.02 236.659C230.006 236.37 229.923 235.969 229.813 235.496C229.712 235.02 229.505 234.483 229.348 233.876C229.214 233.378 229.103 232.825 229.022 232.265C223.594 233.517 218.119 234.694 212.555 234.815C211.364 234.84 210.127 234.807 209.058 234.286ZM216.082 219.162C218.149 219.104 220.419 219.766 222.62 220.418C223.23 220.599 223.819 220.771 224.387 220.925C223.353 220.869 222.334 220.705 221.38 220.481C220.421 220.26 219.512 220.06 218.727 219.914C217.942 219.764 217.271 219.728 216.806 219.712C216.573 219.709 216.391 219.714 216.266 219.722C216.142 219.728 216.076 219.73 216.076 219.73C216.076 219.73 216.142 219.737 216.266 219.75C216.389 219.76 216.57 219.781 216.798 219.817C217.255 219.876 217.898 220.017 218.661 220.212C219.427 220.4 220.301 220.695 221.269 220.939C221.618 221.03 221.983 221.11 222.354 221.184C220.933 221.151 219.424 220.825 217.953 220.512C216.668 220.24 215.36 219.963 214.103 219.876C214.835 219.525 215.518 219.292 216.082 219.162ZM213.553 210.755C213.553 210.755 213.528 210.614 213.482 210.35C213.434 210.086 213.369 209.698 213.307 209.199C213.244 208.701 213.179 208.095 213.133 207.397C213.086 206.698 213.058 205.907 213.091 205.044C213.11 204.181 213.201 203.246 213.356 202.265C213.513 201.285 213.757 200.255 214.168 199.241C214.574 198.229 215.115 197.212 215.874 196.334C216.64 195.452 217.622 194.745 218.658 194.205C220.755 193.135 223.122 192.68 225.315 192.766C225.865 192.778 226.402 192.851 226.925 192.933C227.442 193.053 227.949 193.163 228.421 193.347L228.776 193.471L229.112 193.629C229.331 193.74 229.558 193.822 229.761 193.952C230.164 194.172 230.549 194.456 230.892 194.718C232.259 195.826 233.044 197.078 233.534 197.948C233.778 198.389 233.94 198.749 234.05 198.994C234.155 199.242 234.211 199.373 234.211 199.373C234.211 199.373 233.971 198.851 233.445 197.999C232.921 197.155 232.06 195.984 230.709 194.951C230.359 194.702 230.014 194.459 229.593 194.245C229.401 194.129 229.177 194.056 228.965 193.957L228.64 193.816L228.296 193.708C227.379 193.402 226.357 193.246 225.299 193.22C224.241 193.192 223.143 193.293 222.055 193.527C220.969 193.773 219.896 194.151 218.9 194.669C217.897 195.181 216.978 195.831 216.251 196.646C216.181 196.726 216.121 196.812 216.055 196.894C216.821 196.239 217.699 195.709 218.639 195.344C220.652 194.563 222.913 194.494 225.011 195.006C227.41 195.592 229.692 197.016 230.84 199.191C230.935 199.373 231.018 199.561 231.097 199.75C228.636 199.965 226.113 200.68 222.774 201.837C220.853 202.503 219.135 203.665 217.587 204.91C219.755 203.886 222.157 203.325 224.542 202.911C221.943 203.647 219.258 204.888 219.411 207.265C219.444 207.781 219.611 208.329 219.788 208.908C220.37 210.819 220.368 211.482 219.228 211.913C217.325 212.631 216.251 214.379 215.695 215.658C214.906 214.801 213.936 213.279 213.553 210.755ZM236.544 200.793C237.058 200.897 237.556 201.044 238.009 201.215C238.458 201.408 238.885 201.626 239.187 201.97C239.332 202.143 239.445 202.347 239.472 202.556C239.488 202.661 239.5 202.761 239.482 202.857C239.475 202.955 239.461 203.046 239.431 203.129C239.332 203.469 239.174 203.723 239.044 203.926C238.916 204.132 238.796 204.28 238.722 204.385C238.646 204.489 238.605 204.544 238.605 204.544C238.605 204.544 238.732 204.301 238.955 203.876C239.061 203.665 239.186 203.398 239.239 203.087C239.296 202.776 239.231 202.428 238.967 202.167C238.704 201.903 238.305 201.724 237.877 201.574C237.435 201.44 236.965 201.338 236.464 201.248C236.212 201.21 235.943 201.163 235.693 201.132C235.434 201.106 235.171 201.079 234.906 201.052C234.374 201.019 233.832 200.993 233.288 201.005C232.744 201.004 232.199 201.025 231.663 201.066C231.128 201.102 230.601 201.151 230.091 201.205C229.582 201.27 229.089 201.332 228.623 201.392C228.156 201.459 227.715 201.526 227.31 201.601C226.5 201.746 225.821 201.861 225.351 201.966C224.878 202.064 224.609 202.121 224.609 202.121C224.609 202.121 224.865 202.019 225.324 201.868C225.785 201.723 226.443 201.506 227.249 201.313C227.651 201.212 228.091 201.115 228.556 201.017C229.022 200.919 229.516 200.826 230.03 200.749C230.545 200.68 231.078 200.601 231.625 200.562C232.17 200.515 232.727 200.486 233.284 200.482C233.842 200.474 234.401 200.508 234.95 200.548C235.496 200.602 236.043 200.689 236.544 200.793ZM232.742 208.625C232.734 209.262 232.718 209.905 232.69 210.515C232.682 210.688 232.667 210.95 232.64 211.278C232.555 211.082 232.464 210.897 232.381 210.721C232.322 210.6 232.269 210.481 232.231 210.372C232.199 210.287 232.176 210.131 232.138 209.999C231.996 209.459 231.758 209.021 231.607 208.63L231.594 208.596C231.713 208.684 231.839 208.739 231.94 208.765C232.085 208.807 232.255 208.809 232.395 208.776C232.533 208.742 232.645 208.687 232.742 208.625ZM220.185 216.253C220.585 216.584 221.132 217.093 221.855 217.621C222.133 217.82 222.435 218.037 222.751 218.256L219.943 217.4L221.789 218.539C220.154 218.074 218.425 217.656 216.752 217.592C216.78 217.443 216.803 217.297 216.821 217.159C217.083 216.313 217.934 214.083 219.789 213.383C222.492 212.362 221.746 209.915 221.301 208.453C221.152 207.962 221.01 207.499 220.989 207.165C220.891 205.644 223.874 204.638 226.395 204.061C229.47 203.357 231.785 203.918 232.705 204.221C232.717 204.631 232.731 205.258 232.741 205.999C232.618 205.994 232.494 205.997 232.366 206.009C232.226 206.022 232.088 206.041 231.952 206.063L231.926 206.058C231.918 206.057 231.791 206.034 231.723 206.034C231.563 206.028 231.404 206.09 231.296 206.208C231.191 206.316 231.098 206.501 231.069 206.623C231.035 206.753 231.029 206.875 231.03 206.978C231.055 207.235 231.084 207.436 231.129 207.675L231.13 207.705C231.153 207.953 231.184 208.317 231.295 208.731C231.404 209.145 231.537 209.626 231.645 210.114C231.675 210.237 231.68 210.35 231.73 210.525C231.774 210.676 231.829 210.811 231.884 210.942C231.995 211.203 232.113 211.456 232.188 211.697C232.23 211.813 232.261 211.931 232.262 212.011C232.269 212.069 232.233 212.156 232.176 212.242C232.059 212.412 231.853 212.557 231.64 212.668L231.57 212.701C231.495 212.701 231.418 212.697 231.333 212.695C231.145 212.691 230.912 212.656 230.693 212.627C230.472 212.62 230.222 212.601 229.97 212.635C229.844 212.652 229.714 212.693 229.597 212.772C229.489 212.853 229.457 212.895 229.377 212.946C229.24 213.04 229.129 213.144 229.044 213.202C228.962 213.269 228.915 213.308 228.915 213.308L228.94 213.308L228.939 213.308L228.942 213.308C228.968 213.307 229.01 213.307 229.084 213.307L229.091 213.306C229.154 213.307 229.231 213.31 229.33 213.319C229.577 213.325 229.925 213.388 230.359 213.402C230.797 213.423 231.347 213.358 231.864 213.119C232.072 213.019 232.289 212.895 232.48 212.707C232.377 213.432 232.224 214.253 232.003 215.077C231.976 215.067 231.945 215.056 231.902 215.04C231.797 215.014 231.648 214.952 231.469 214.923C231.29 214.897 231.081 214.837 230.856 214.825C230.632 214.81 230.393 214.795 230.154 214.779C229.914 214.791 229.675 214.803 229.45 214.815C229.224 214.824 228.996 214.884 228.807 214.944C228.613 215.005 228.478 215.128 228.399 215.207C228.325 215.298 228.298 215.355 228.298 215.355C228.298 215.355 228.358 215.327 228.461 215.308C228.56 215.277 228.705 215.282 228.866 215.284C229.031 215.28 229.224 215.333 229.446 215.347C229.671 215.362 229.91 215.378 230.149 215.394C230.388 215.381 230.628 215.37 230.852 215.358C231.077 215.35 231.287 215.293 231.466 215.269C231.646 215.243 231.796 215.183 231.901 215.159C231.939 215.146 231.964 215.137 231.989 215.128C231.523 216.838 230.749 218.544 229.472 219.395C229.01 219.532 228.5 219.553 227.989 219.476C227.458 219.422 226.918 219.276 226.385 219.093C225.851 218.914 225.335 218.703 224.844 218.475C223.864 218.02 222.941 217.571 222.178 217.129C221.402 216.698 220.755 216.339 220.302 216.087C219.842 215.842 219.579 215.702 219.579 215.702C219.579 215.702 219.799 215.903 220.185 216.253ZM259.554 220.935C259.293 222.485 259.049 224.244 258.949 225.857C257.844 225.365 256.444 224.742 255.042 224.119C256.354 223.233 258.018 222.081 259.554 220.935ZM233.222 221.511C234.843 221.057 235.982 220.551 237.159 219.948C236.49 221.179 236.141 222.411 236.141 222.411C236.141 222.411 236.915 221.145 237.945 220.146C238.952 219.118 240.148 218.399 240.148 218.399L240.138 218.388C240.276 218.318 240.412 218.249 240.557 218.177L240.554 218.171C244.265 216.852 252.797 214.136 256.568 212.639C256.581 213.293 256.618 213.958 256.74 214.627C256.952 215.788 257.385 216.752 258.03 217.491C258.146 217.625 258.27 217.747 258.396 217.865C257.429 218.624 256.39 219.444 255.13 220.368C251.094 223.327 246.742 225.857 242.177 227.92C241.638 228.108 240.771 228.382 239.848 228.557C238.345 228.873 236.743 228.894 236.743 228.894C236.743 228.894 237.425 229.2 238.373 229.512C236.05 230.406 233.681 231.177 231.278 231.827C231.226 230.657 231.299 229.384 231.718 228.062C232.677 225.036 232.659 222.801 232.569 221.76C232.792 221.692 233.01 221.609 233.222 221.511ZM289.81 156C289.378 156 288.977 156.09 288.618 156.268C285.919 157.61 279.101 171.543 275.498 179.564C270.667 190.318 268.541 198.139 267.892 200.8C262.71 202.163 260.799 204.879 260.145 205.807C259.737 206.386 259.441 207.076 259.127 207.806C258.67 208.872 258.151 210.08 257.358 210.568C256.297 211.222 249.861 213.373 245.602 214.796C242.965 215.678 240.688 216.439 239.349 216.934C238.894 217.101 236.467 217.42 234.024 217.42C233.688 217.42 233.399 217.414 233.152 217.403C233.345 216.984 233.479 216.618 233.615 216.201C233.925 215.25 234.182 214.372 234.375 213.673C234.468 213.681 234.562 213.685 234.657 213.685C235.83 213.685 236.745 213.022 237.043 211.954C237.35 210.855 237.022 208.867 236.714 207.463C237.958 206.547 239.781 204.973 240.113 203.414C240.259 202.725 240.143 202.065 239.775 201.505C239.069 200.428 237.835 199.834 236.303 199.834C236.236 199.834 236.17 199.835 236.105 199.837C235.395 197.897 233.705 194.427 230.263 192.623C228.743 191.826 226.88 191.405 224.876 191.405C220.656 191.405 216.454 193.25 214.42 195.996C210.893 200.758 211.545 208.068 211.989 210.99C212.534 214.576 214.134 216.473 215.188 217.363C215.162 217.496 215.13 217.642 215.095 217.794C211.376 218.9 206.492 222.614 206.047 229.476C205.687 235.023 207.458 237.81 209.701 241.337C210.571 242.705 211.556 244.256 212.539 246.174C215.232 251.427 215.258 252.847 215.356 258.128C215.379 259.318 215.403 260.667 215.464 262.285C215.708 268.851 217.034 270.527 217.749 271.427C216.444 278.764 216.97 285.125 217.762 294.699L217.774 294.841C218.339 301.687 219.878 307.15 220.772 309.867C218.329 310.297 215.088 311.194 214.105 313.002C213.665 313.81 213.662 314.724 214.097 315.575C215.428 318.181 222.03 323.616 224.543 325.628C224.171 328.583 222.96 338.15 222.596 340.469C222.391 341.769 222.45 342.722 222.639 343.42C222.03 344.028 221.461 344.819 221.324 345.736C221.207 346.517 221.409 347.261 221.908 347.888C222.644 348.811 228.808 354 232.227 354C232.544 354 232.846 353.959 233.123 353.878C235.149 353.285 236.406 350.707 237.095 348.695C237.495 348.845 237.928 348.945 238.373 348.945C239.002 348.945 240.537 348.724 241.206 346.677C241.844 344.726 243.137 338.472 243.828 335.036C248.805 338.147 255.293 341.263 258.067 342.555C257.843 342.911 257.52 343.222 257.071 343.247C255.409 343.338 253.97 344.307 253.222 345.838C252.533 347.249 252.586 348.809 253.361 349.909C253.644 350.312 254.507 351.538 259.759 351.538C261.693 351.538 265.133 351.36 266.453 350.173C267.158 349.539 267.856 348.455 268.741 347.083C269.84 345.377 271.209 343.253 272.527 342.279C275.66 339.962 277.757 334.532 276.606 331.715C275.432 328.844 268.858 325.411 265.707 325.047C263.574 324.8 260.133 323.287 256.87 319.778C254.327 317.042 250.363 314.296 248.521 313.081C250.132 306.975 250.059 301.038 249.997 299.343C251.083 297.37 255.646 288.762 256.381 282.112C257.175 274.913 256.842 268.963 256.7 266.422L256.695 266.331C256.619 264.981 256.19 264.242 255.906 263.753C255.696 263.391 255.646 263.305 255.954 262.407C256.643 260.401 256.355 258.231 255.992 255.483C255.781 253.891 255.542 252.086 255.444 249.972C255.302 246.892 254.884 243.729 254.518 241.415C256.975 242.523 259.283 242.732 260.675 242.732C262.804 242.732 264.634 242.269 265.57 241.493C267.29 240.068 267.963 236.436 268.225 233.639C268.354 232.261 268.765 230.604 269.03 229.638C269.946 229.213 270.575 228.4 271.188 227.606C271.459 227.255 271.74 226.892 272.067 226.524C273.251 225.19 273.443 223.576 273.629 222.015C273.716 221.29 273.805 220.541 273.995 219.802C274.337 218.462 274.435 217.093 274.448 216.051L274.582 215.84C275.397 215.716 276.335 215.505 277.054 215.134C278.671 214.3 278.748 212.219 278.829 210.014C278.857 209.255 278.886 208.469 278.984 207.884C279.29 206.06 278.746 204.428 278.345 203.534C278.947 201.841 280.998 196.416 285.92 186.212C292.89 171.76 296 164.879 296 162.303C296 159.32 292.31 156 289.81 156Z" fill="#202020"/>
<path d="M74.656 66.848V73.904C74.656 74.896 74.896 75.632 75.376 76.112C75.8667 76.592 76.544 76.832 77.408 76.832C78.2613 76.832 78.928 76.592 79.408 76.112C79.8987 75.632 80.144 74.896 80.144 73.904V66.848H81.6V73.888C81.6 74.816 81.4133 75.6 81.04 76.24C80.6667 76.8693 80.16 77.3387 79.52 77.648C78.8907 77.9573 78.1813 78.112 77.392 78.112C76.6027 78.112 75.888 77.9573 75.248 77.648C74.6187 77.3387 74.1173 76.8693 73.744 76.24C73.3813 75.6 73.2 74.816 73.2 73.888V66.848H74.656ZM85.4849 70.848C85.7729 70.3467 86.1995 69.9307 86.7649 69.6C87.3409 69.2587 88.0075 69.088 88.7649 69.088C89.5435 69.088 90.2475 69.2747 90.8769 69.648C91.5169 70.0213 92.0182 70.5493 92.3809 71.232C92.7435 71.904 92.9249 72.688 92.9249 73.584C92.9249 74.4693 92.7435 75.2587 92.3809 75.952C92.0182 76.6453 91.5169 77.184 90.8769 77.568C90.2475 77.952 89.5435 78.144 88.7649 78.144C88.0182 78.144 87.3569 77.9787 86.7809 77.648C86.2155 77.3067 85.7835 76.8853 85.4849 76.384V82.16H84.0289V69.232H85.4849V70.848ZM91.4369 73.584C91.4369 72.9227 91.3035 72.3467 91.0369 71.856C90.7702 71.3653 90.4075 70.992 89.9489 70.736C89.5009 70.48 89.0049 70.352 88.4609 70.352C87.9275 70.352 87.4315 70.4853 86.9729 70.752C86.5249 71.008 86.1622 71.3867 85.8849 71.888C85.6182 72.3787 85.4849 72.9493 85.4849 73.6C85.4849 74.2613 85.6182 74.8427 85.8849 75.344C86.1622 75.8347 86.5249 76.2133 86.9729 76.48C87.4315 76.736 87.9275 76.864 88.4609 76.864C89.0049 76.864 89.5009 76.736 89.9489 76.48C90.4075 76.2133 90.7702 75.8347 91.0369 75.344C91.3035 74.8427 91.4369 74.256 91.4369 73.584ZM96.2974 70.848C96.5854 70.3467 97.012 69.9307 97.5774 69.6C98.1534 69.2587 98.82 69.088 99.5774 69.088C100.356 69.088 101.06 69.2747 101.689 69.648C102.329 70.0213 102.831 70.5493 103.193 71.232C103.556 71.904 103.737 72.688 103.737 73.584C103.737 74.4693 103.556 75.2587 103.193 75.952C102.831 76.6453 102.329 77.184 101.689 77.568C101.06 77.952 100.356 78.144 99.5774 78.144C98.8307 78.144 98.1694 77.9787 97.5934 77.648C97.028 77.3067 96.596 76.8853 96.2974 76.384V82.16H94.8414V69.232H96.2974V70.848ZM102.249 73.584C102.249 72.9227 102.116 72.3467 101.849 71.856C101.583 71.3653 101.22 70.992 100.761 70.736C100.313 70.48 99.8174 70.352 99.2734 70.352C98.74 70.352 98.244 70.4853 97.7854 70.752C97.3374 71.008 96.9747 71.3867 96.6974 71.888C96.4307 72.3787 96.2974 72.9493 96.2974 73.6C96.2974 74.2613 96.4307 74.8427 96.6974 75.344C96.9747 75.8347 97.3374 76.2133 97.7854 76.48C98.244 76.736 98.74 76.864 99.2734 76.864C99.8174 76.864 100.313 76.736 100.761 76.48C101.22 76.2133 101.583 75.8347 101.849 75.344C102.116 74.8427 102.249 74.256 102.249 73.584ZM113.654 73.28C113.654 73.5573 113.638 73.8507 113.606 74.16H106.598C106.651 75.024 106.945 75.7013 107.478 76.192C108.022 76.672 108.678 76.912 109.446 76.912C110.075 76.912 110.598 76.768 111.014 76.48C111.441 76.1813 111.739 75.7867 111.91 75.296H113.478C113.243 76.1387 112.774 76.8267 112.07 77.36C111.366 77.8827 110.491 78.144 109.446 78.144C108.614 78.144 107.867 77.9573 107.206 77.584C106.555 77.2107 106.043 76.6827 105.67 76C105.297 75.3067 105.11 74.5067 105.11 73.6C105.11 72.6933 105.291 71.8987 105.654 71.216C106.017 70.5333 106.523 70.0107 107.174 69.648C107.835 69.2747 108.593 69.088 109.446 69.088C110.278 69.088 111.014 69.2693 111.654 69.632C112.294 69.9947 112.785 70.496 113.126 71.136C113.478 71.7653 113.654 72.48 113.654 73.28ZM112.15 72.976C112.15 72.4213 112.027 71.9467 111.782 71.552C111.537 71.1467 111.201 70.8427 110.774 70.64C110.358 70.4267 109.894 70.32 109.382 70.32C108.646 70.32 108.017 70.5547 107.494 71.024C106.982 71.4933 106.689 72.144 106.614 72.976H112.15ZM117.032 70.656C117.288 70.1547 117.65 69.7653 118.12 69.488C118.6 69.2107 119.181 69.072 119.864 69.072V70.576H119.48C117.848 70.576 117.032 71.4613 117.032 73.232V78H115.576V69.232H117.032V70.656ZM136.354 69.072C137.037 69.072 137.645 69.216 138.178 69.504C138.711 69.7813 139.133 70.2027 139.442 70.768C139.751 71.3333 139.906 72.0213 139.906 72.832V78H138.466V73.04C138.466 72.1653 138.247 71.4987 137.81 71.04C137.383 70.5707 136.802 70.336 136.066 70.336C135.309 70.336 134.706 70.5813 134.258 71.072C133.81 71.552 133.586 72.2507 133.586 73.168V78H132.146V73.04C132.146 72.1653 131.927 71.4987 131.49 71.04C131.063 70.5707 130.482 70.336 129.746 70.336C128.989 70.336 128.386 70.5813 127.938 71.072C127.49 71.552 127.266 72.2507 127.266 73.168V78H125.81V69.232H127.266V70.496C127.554 70.0373 127.938 69.6853 128.418 69.44C128.909 69.1947 129.447 69.072 130.034 69.072C130.77 69.072 131.421 69.2373 131.986 69.568C132.551 69.8987 132.973 70.384 133.25 71.024C133.495 70.4053 133.901 69.9253 134.466 69.584C135.031 69.2427 135.661 69.072 136.354 69.072ZM143.047 67.808C142.769 67.808 142.535 67.712 142.343 67.52C142.151 67.328 142.055 67.0933 142.055 66.816C142.055 66.5387 142.151 66.304 142.343 66.112C142.535 65.92 142.769 65.824 143.047 65.824C143.313 65.824 143.537 65.92 143.719 66.112C143.911 66.304 144.007 66.5387 144.007 66.816C144.007 67.0933 143.911 67.328 143.719 67.52C143.537 67.712 143.313 67.808 143.047 67.808ZM143.751 69.232V78H142.295V69.232H143.751ZM145.688 73.584C145.688 72.688 145.869 71.904 146.232 71.232C146.595 70.5493 147.091 70.0213 147.72 69.648C148.36 69.2747 149.075 69.088 149.864 69.088C150.547 69.088 151.181 69.248 151.768 69.568C152.355 69.8773 152.803 70.288 153.112 70.8V66.16H154.584V78H153.112V76.352C152.824 76.8747 152.397 77.3067 151.832 77.648C151.267 77.9787 150.605 78.144 149.848 78.144C149.069 78.144 148.36 77.952 147.72 77.568C147.091 77.184 146.595 76.6453 146.232 75.952C145.869 75.2587 145.688 74.4693 145.688 73.584ZM153.112 73.6C153.112 72.9387 152.979 72.3627 152.712 71.872C152.445 71.3813 152.083 71.008 151.624 70.752C151.176 70.4853 150.68 70.352 150.136 70.352C149.592 70.352 149.096 70.48 148.648 70.736C148.2 70.992 147.843 71.3653 147.576 71.856C147.309 72.3467 147.176 72.9227 147.176 73.584C147.176 74.256 147.309 74.8427 147.576 75.344C147.843 75.8347 148.2 76.2133 148.648 76.48C149.096 76.736 149.592 76.864 150.136 76.864C150.68 76.864 151.176 76.736 151.624 76.48C152.083 76.2133 152.445 75.8347 152.712 75.344C152.979 74.8427 153.112 74.2613 153.112 73.6ZM156.501 73.584C156.501 72.688 156.682 71.904 157.045 71.232C157.407 70.5493 157.903 70.0213 158.533 69.648C159.173 69.2747 159.887 69.088 160.677 69.088C161.359 69.088 161.994 69.248 162.581 69.568C163.167 69.8773 163.615 70.288 163.925 70.8V66.16H165.397V78H163.925V76.352C163.637 76.8747 163.21 77.3067 162.645 77.648C162.079 77.9787 161.418 78.144 160.661 78.144C159.882 78.144 159.173 77.952 158.533 77.568C157.903 77.184 157.407 76.6453 157.045 75.952C156.682 75.2587 156.501 74.4693 156.501 73.584ZM163.925 73.6C163.925 72.9387 163.791 72.3627 163.525 71.872C163.258 71.3813 162.895 71.008 162.437 70.752C161.989 70.4853 161.493 70.352 160.949 70.352C160.405 70.352 159.909 70.48 159.461 70.736C159.013 70.992 158.655 71.3653 158.389 71.856C158.122 72.3467 157.989 72.9227 157.989 73.584C157.989 74.256 158.122 74.8427 158.389 75.344C158.655 75.8347 159.013 76.2133 159.461 76.48C159.909 76.736 160.405 76.864 160.949 76.864C161.493 76.864 161.989 76.736 162.437 76.48C162.895 76.2133 163.258 75.8347 163.525 75.344C163.791 74.8427 163.925 74.2613 163.925 73.6ZM169.313 66.16V78H167.857V66.16H169.313ZM179.795 73.28C179.795 73.5573 179.779 73.8507 179.747 74.16H172.739C172.792 75.024 173.085 75.7013 173.619 76.192C174.163 76.672 174.819 76.912 175.587 76.912C176.216 76.912 176.739 76.768 177.155 76.48C177.581 76.1813 177.88 75.7867 178.051 75.296H179.619C179.384 76.1387 178.915 76.8267 178.211 77.36C177.507 77.8827 176.632 78.144 175.587 78.144C174.755 78.144 174.008 77.9573 173.347 77.584C172.696 77.2107 172.184 76.6827 171.811 76C171.437 75.3067 171.251 74.5067 171.251 73.6C171.251 72.6933 171.432 71.8987 171.795 71.216C172.157 70.5333 172.664 70.0107 173.315 69.648C173.976 69.2747 174.733 69.088 175.587 69.088C176.419 69.088 177.155 69.2693 177.795 69.632C178.435 69.9947 178.925 70.496 179.267 71.136C179.619 71.7653 179.795 72.48 179.795 73.28ZM178.291 72.976C178.291 72.4213 178.168 71.9467 177.923 71.552C177.677 71.1467 177.341 70.8427 176.915 70.64C176.499 70.4267 176.035 70.32 175.523 70.32C174.787 70.32 174.157 70.5547 173.635 71.024C173.123 71.4933 172.829 72.144 172.755 72.976H178.291ZM189.806 78.144C188.985 78.144 188.238 77.9573 187.566 77.584C186.905 77.2107 186.382 76.6827 185.998 76C185.625 75.3067 185.438 74.5067 185.438 73.6C185.438 72.704 185.63 71.9147 186.014 71.232C186.409 70.5387 186.942 70.0107 187.614 69.648C188.286 69.2747 189.038 69.088 189.87 69.088C190.702 69.088 191.454 69.2747 192.126 69.648C192.798 70.0107 193.326 70.5333 193.71 71.216C194.105 71.8987 194.302 72.6933 194.302 73.6C194.302 74.5067 194.099 75.3067 193.694 76C193.299 76.6827 192.761 77.2107 192.078 77.584C191.395 77.9573 190.638 78.144 189.806 78.144ZM189.806 76.864C190.329 76.864 190.819 76.7413 191.278 76.496C191.737 76.2507 192.105 75.8827 192.382 75.392C192.67 74.9013 192.814 74.304 192.814 73.6C192.814 72.896 192.675 72.2987 192.398 71.808C192.121 71.3173 191.758 70.9547 191.31 70.72C190.862 70.4747 190.377 70.352 189.854 70.352C189.321 70.352 188.83 70.4747 188.382 70.72C187.945 70.9547 187.593 71.3173 187.326 71.808C187.059 72.2987 186.926 72.896 186.926 73.6C186.926 74.3147 187.054 74.9173 187.31 75.408C187.577 75.8987 187.929 76.2667 188.366 76.512C188.803 76.7467 189.283 76.864 189.806 76.864ZM197.672 70.656C197.928 70.1547 198.291 69.7653 198.76 69.488C199.24 69.2107 199.822 69.072 200.504 69.072V70.576H200.12C198.488 70.576 197.672 71.4613 197.672 73.232V78H196.216V69.232H197.672V70.656ZM201.641 73.584C201.641 72.688 201.822 71.904 202.185 71.232C202.548 70.5493 203.044 70.0213 203.673 69.648C204.313 69.2747 205.028 69.088 205.817 69.088C206.5 69.088 207.134 69.248 207.721 69.568C208.308 69.8773 208.756 70.288 209.065 70.8V66.16H210.537V78H209.065V76.352C208.777 76.8747 208.35 77.3067 207.785 77.648C207.22 77.9787 206.558 78.144 205.801 78.144C205.022 78.144 204.313 77.952 203.673 77.568C203.044 77.184 202.548 76.6453 202.185 75.952C201.822 75.2587 201.641 74.4693 201.641 73.584ZM209.065 73.6C209.065 72.9387 208.932 72.3627 208.665 71.872C208.398 71.3813 208.036 71.008 207.577 70.752C207.129 70.4853 206.633 70.352 206.089 70.352C205.545 70.352 205.049 70.48 204.601 70.736C204.153 70.992 203.796 71.3653 203.529 71.856C203.262 72.3467 203.129 72.9227 203.129 73.584C203.129 74.256 203.262 74.8427 203.529 75.344C203.796 75.8347 204.153 76.2133 204.601 76.48C205.049 76.736 205.545 76.864 206.089 76.864C206.633 76.864 207.129 76.736 207.577 76.48C208.036 76.2133 208.398 75.8347 208.665 75.344C208.932 74.8427 209.065 74.2613 209.065 73.6ZM220.998 73.28C220.998 73.5573 220.982 73.8507 220.95 74.16H213.942C213.995 75.024 214.288 75.7013 214.822 76.192C215.366 76.672 216.022 76.912 216.79 76.912C217.419 76.912 217.942 76.768 218.358 76.48C218.784 76.1813 219.083 75.7867 219.254 75.296H220.822C220.587 76.1387 220.118 76.8267 219.414 77.36C218.71 77.8827 217.835 78.144 216.79 78.144C215.958 78.144 215.211 77.9573 214.55 77.584C213.899 77.2107 213.387 76.6827 213.014 76C212.64 75.3067 212.454 74.5067 212.454 73.6C212.454 72.6933 212.635 71.8987 212.998 71.216C213.36 70.5333 213.867 70.0107 214.518 69.648C215.179 69.2747 215.936 69.088 216.79 69.088C217.622 69.088 218.358 69.2693 218.998 69.632C219.638 69.9947 220.128 70.496 220.47 71.136C220.822 71.7653 220.998 72.48 220.998 73.28ZM219.494 72.976C219.494 72.4213 219.371 71.9467 219.126 71.552C218.88 71.1467 218.544 70.8427 218.118 70.64C217.702 70.4267 217.238 70.32 216.726 70.32C215.99 70.32 215.36 70.5547 214.838 71.024C214.326 71.4933 214.032 72.144 213.958 72.976H219.494ZM224.376 70.656C224.632 70.1547 224.994 69.7653 225.464 69.488C225.944 69.2107 226.525 69.072 227.208 69.072V70.576H226.824C225.192 70.576 224.376 71.4613 224.376 73.232V78H222.92V69.232H224.376V70.656Z" fill="white"/>
<path d="M72.688 104.416C72.688 103.328 72.9333 102.352 73.424 101.488C73.9147 100.613 74.5813 99.9307 75.424 99.44C76.2773 98.9493 77.2213 98.704 78.256 98.704C79.472 98.704 80.5333 98.9973 81.44 99.584C82.3467 100.171 83.008 101.003 83.424 102.08H81.68C81.3707 101.408 80.9227 100.891 80.336 100.528C79.76 100.165 79.0667 99.984 78.256 99.984C77.4773 99.984 76.7787 100.165 76.16 100.528C75.5413 100.891 75.056 101.408 74.704 102.08C74.352 102.741 74.176 103.52 74.176 104.416C74.176 105.301 74.352 106.08 74.704 106.752C75.056 107.413 75.5413 107.925 76.16 108.288C76.7787 108.651 77.4773 108.832 78.256 108.832C79.0667 108.832 79.76 108.656 80.336 108.304C80.9227 107.941 81.3707 107.424 81.68 106.752H83.424C83.008 107.819 82.3467 108.645 81.44 109.232C80.5333 109.808 79.472 110.096 78.256 110.096C77.2213 110.096 76.2773 109.856 75.424 109.376C74.5813 108.885 73.9147 108.208 73.424 107.344C72.9333 106.48 72.688 105.504 72.688 104.416ZM93.3674 101.232V110H91.9114V108.704C91.634 109.152 91.2447 109.504 90.7434 109.76C90.2527 110.005 89.7087 110.128 89.1114 110.128C88.4287 110.128 87.8154 109.989 87.2714 109.712C86.7274 109.424 86.2954 108.997 85.9754 108.432C85.666 107.867 85.5114 107.179 85.5114 106.368V101.232H86.9514V106.176C86.9514 107.04 87.17 107.707 87.6074 108.176C88.0447 108.635 88.642 108.864 89.3994 108.864C90.178 108.864 90.7914 108.624 91.2394 108.144C91.6874 107.664 91.9114 106.965 91.9114 106.048V101.232H93.3674ZM97.6018 102.432V107.6C97.6018 108.027 97.6924 108.331 97.8738 108.512C98.0551 108.683 98.3698 108.768 98.8177 108.768H99.8898V110H98.5778C97.7671 110 97.1591 109.813 96.7538 109.44C96.3484 109.067 96.1458 108.453 96.1458 107.6V102.432H95.0098V101.232H96.1458V99.024H97.6018V101.232H99.8898V102.432H97.6018Z" fill="white"/>
<path d="M79.104 142L76.448 137.44H74.688V142H73.232V130.848H76.832C77.6747 130.848 78.384 130.992 78.96 131.28C79.5467 131.568 79.984 131.957 80.272 132.448C80.56 132.939 80.704 133.499 80.704 134.128C80.704 134.896 80.48 135.573 80.032 136.16C79.5947 136.747 78.9333 137.136 78.048 137.328L80.848 142H79.104ZM74.688 136.272H76.832C77.6213 136.272 78.2133 136.08 78.608 135.696C79.0027 135.301 79.2 134.779 79.2 134.128C79.2 133.467 79.0027 132.955 78.608 132.592C78.224 132.229 77.632 132.048 76.832 132.048H74.688V136.272ZM83.7184 131.808C83.441 131.808 83.2064 131.712 83.0144 131.52C82.8224 131.328 82.7264 131.093 82.7264 130.816C82.7264 130.539 82.8224 130.304 83.0144 130.112C83.2064 129.92 83.441 129.824 83.7184 129.824C83.985 129.824 84.209 129.92 84.3904 130.112C84.5824 130.304 84.6784 130.539 84.6784 130.816C84.6784 131.093 84.5824 131.328 84.3904 131.52C84.209 131.712 83.985 131.808 83.7184 131.808ZM84.4224 133.232V142H82.9664V133.232H84.4224ZM90.5199 133.088C91.2772 133.088 91.9385 133.253 92.5039 133.584C93.0799 133.915 93.5065 134.331 93.7839 134.832V133.232H95.2559V142.192C95.2559 142.992 95.0852 143.701 94.7439 144.32C94.4025 144.949 93.9119 145.44 93.2719 145.792C92.6425 146.144 91.9065 146.32 91.0639 146.32C89.9119 146.32 88.9519 146.048 88.1839 145.504C87.4159 144.96 86.9625 144.219 86.8239 143.28H88.2639C88.4239 143.813 88.7545 144.24 89.2559 144.56C89.7572 144.891 90.3599 145.056 91.0639 145.056C91.8639 145.056 92.5145 144.805 93.0159 144.304C93.5279 143.803 93.7839 143.099 93.7839 142.192V140.352C93.4959 140.864 93.0692 141.291 92.5039 141.632C91.9385 141.973 91.2772 142.144 90.5199 142.144C89.7412 142.144 89.0319 141.952 88.3919 141.568C87.7625 141.184 87.2665 140.645 86.9039 139.952C86.5412 139.259 86.3599 138.469 86.3599 137.584C86.3599 136.688 86.5412 135.904 86.9039 135.232C87.2665 134.549 87.7625 134.021 88.3919 133.648C89.0319 133.275 89.7412 133.088 90.5199 133.088ZM93.7839 137.6C93.7839 136.939 93.6505 136.363 93.3839 135.872C93.1172 135.381 92.7545 135.008 92.2959 134.752C91.8479 134.485 91.3519 134.352 90.8079 134.352C90.2639 134.352 89.7679 134.48 89.3199 134.736C88.8719 134.992 88.5145 135.365 88.2479 135.856C87.9812 136.347 87.8479 136.923 87.8479 137.584C87.8479 138.256 87.9812 138.843 88.2479 139.344C88.5145 139.835 88.8719 140.213 89.3199 140.48C89.7679 140.736 90.2639 140.864 90.8079 140.864C91.3519 140.864 91.8479 140.736 92.2959 140.48C92.7545 140.213 93.1172 139.835 93.3839 139.344C93.6505 138.843 93.7839 138.261 93.7839 137.6ZM102.068 133.072C102.73 133.072 103.327 133.216 103.86 133.504C104.394 133.781 104.81 134.203 105.108 134.768C105.418 135.333 105.572 136.021 105.572 136.832V142H104.132V137.04C104.132 136.165 103.914 135.499 103.476 135.04C103.039 134.571 102.442 134.336 101.684 134.336C100.916 134.336 100.303 134.576 99.8444 135.056C99.3964 135.536 99.1724 136.235 99.1724 137.152V142H97.7164V130.16H99.1724V134.48C99.4604 134.032 99.855 133.685 100.356 133.44C100.868 133.195 101.439 133.072 102.068 133.072ZM109.727 134.432V139.6C109.727 140.027 109.817 140.331 109.999 140.512C110.18 140.683 110.495 140.768 110.943 140.768H112.015V142H110.703C109.892 142 109.284 141.813 108.879 141.44C108.473 141.067 108.271 140.453 108.271 139.6V134.432H107.135V133.232H108.271V131.024H109.727V133.232H112.015V134.432H109.727ZM124.637 139.52H119.773L118.877 142H117.34L121.373 130.912H123.053L127.069 142H125.533L124.637 139.52ZM124.221 138.336L122.205 132.704L120.189 138.336H124.221ZM130.282 134.656C130.538 134.155 130.9 133.765 131.37 133.488C131.85 133.211 132.431 133.072 133.114 133.072V134.576H132.73C131.098 134.576 130.282 135.461 130.282 137.232V142H128.826V133.232H130.282V134.656ZM145.339 133.072C146.021 133.072 146.629 133.216 147.163 133.504C147.696 133.781 148.117 134.203 148.427 134.768C148.736 135.333 148.891 136.021 148.891 136.832V142H147.451V137.04C147.451 136.165 147.232 135.499 146.795 135.04C146.368 134.571 145.787 134.336 145.051 134.336C144.293 134.336 143.691 134.581 143.243 135.072C142.795 135.552 142.571 136.251 142.571 137.168V142H141.131V137.04C141.131 136.165 140.912 135.499 140.475 135.04C140.048 134.571 139.467 134.336 138.731 134.336C137.973 134.336 137.371 134.581 136.923 135.072C136.475 135.552 136.251 136.251 136.251 137.168V142H134.795V133.232H136.251V134.496C136.539 134.037 136.923 133.685 137.403 133.44C137.893 133.195 138.432 133.072 139.019 133.072C139.755 133.072 140.405 133.237 140.971 133.568C141.536 133.899 141.957 134.384 142.235 135.024C142.48 134.405 142.885 133.925 143.451 133.584C144.016 133.243 144.645 133.072 145.339 133.072Z" fill="white"/>
<path d="M79.536 162.848V164.032H74.688V167.792H78.624V168.976H74.688V174H73.232V162.848H79.536ZM80.7505 169.584C80.7505 168.688 80.9318 167.904 81.2945 167.232C81.6572 166.549 82.1532 166.021 82.7825 165.648C83.4225 165.275 84.1318 165.088 84.9105 165.088C85.6785 165.088 86.3452 165.253 86.9105 165.584C87.4758 165.915 87.8972 166.331 88.1745 166.832V165.232H89.6465V174H88.1745V172.368C87.8865 172.88 87.4545 173.307 86.8785 173.648C86.3132 173.979 85.6518 174.144 84.8945 174.144C84.1158 174.144 83.4118 173.952 82.7825 173.568C82.1532 173.184 81.6572 172.645 81.2945 171.952C80.9318 171.259 80.7505 170.469 80.7505 169.584ZM88.1745 169.6C88.1745 168.939 88.0412 168.363 87.7745 167.872C87.5078 167.381 87.1452 167.008 86.6865 166.752C86.2385 166.485 85.7425 166.352 85.1985 166.352C84.6545 166.352 84.1585 166.48 83.7105 166.736C83.2625 166.992 82.9052 167.365 82.6385 167.856C82.3718 168.347 82.2385 168.923 82.2385 169.584C82.2385 170.256 82.3718 170.843 82.6385 171.344C82.9052 171.835 83.2625 172.213 83.7105 172.48C84.1585 172.736 84.6545 172.864 85.1985 172.864C85.7425 172.864 86.2385 172.736 86.6865 172.48C87.1452 172.213 87.5078 171.835 87.7745 171.344C88.0412 170.843 88.1745 170.261 88.1745 169.6ZM95.211 174.144C94.539 174.144 93.9363 174.032 93.403 173.808C92.8697 173.573 92.4483 173.253 92.139 172.848C91.8297 172.432 91.659 171.957 91.627 171.424H93.131C93.1737 171.861 93.3763 172.219 93.739 172.496C94.1123 172.773 94.5977 172.912 95.195 172.912C95.7497 172.912 96.187 172.789 96.507 172.544C96.827 172.299 96.987 171.989 96.987 171.616C96.987 171.232 96.8163 170.949 96.475 170.768C96.1337 170.576 95.6057 170.389 94.891 170.208C94.2403 170.037 93.707 169.867 93.291 169.696C92.8857 169.515 92.5337 169.253 92.235 168.912C91.947 168.56 91.803 168.101 91.803 167.536C91.803 167.088 91.9363 166.677 92.203 166.304C92.4697 165.931 92.8483 165.637 93.339 165.424C93.8297 165.2 94.3897 165.088 95.019 165.088C95.9897 165.088 96.7737 165.333 97.371 165.824C97.9683 166.315 98.2883 166.987 98.331 167.84H96.875C96.843 167.381 96.6563 167.013 96.315 166.736C95.9843 166.459 95.5363 166.32 94.971 166.32C94.4483 166.32 94.0323 166.432 93.723 166.656C93.4137 166.88 93.259 167.173 93.259 167.536C93.259 167.824 93.3497 168.064 93.531 168.256C93.723 168.437 93.9577 168.587 94.235 168.704C94.523 168.811 94.9177 168.933 95.419 169.072C96.0483 169.243 96.5603 169.413 96.955 169.584C97.3497 169.744 97.6857 169.989 97.963 170.32C98.251 170.651 98.4003 171.083 98.411 171.616C98.411 172.096 98.2777 172.528 98.011 172.912C97.7443 173.296 97.3657 173.6 96.875 173.824C96.395 174.037 95.8403 174.144 95.211 174.144ZM102.242 166.432V171.6C102.242 172.027 102.333 172.331 102.514 172.512C102.696 172.683 103.01 172.768 103.458 172.768H104.53V174H103.218C102.408 174 101.8 173.813 101.394 173.44C100.989 173.067 100.786 172.453 100.786 171.6V166.432H99.6504V165.232H100.786V163.024H102.242V165.232H104.53V166.432H102.242Z" fill="white"/>
<path d="M81.04 194.848L77.408 201.792V206H75.952V201.792L72.304 194.848H73.92L76.672 200.496L79.424 194.848H81.04ZM86.3998 206.144C85.5784 206.144 84.8318 205.957 84.1598 205.584C83.4984 205.211 82.9758 204.683 82.5918 204C82.2184 203.307 82.0318 202.507 82.0318 201.6C82.0318 200.704 82.2238 199.915 82.6078 199.232C83.0024 198.539 83.5358 198.011 84.2078 197.648C84.8798 197.275 85.6318 197.088 86.4638 197.088C87.2958 197.088 88.0478 197.275 88.7198 197.648C89.3918 198.011 89.9198 198.533 90.3038 199.216C90.6984 199.899 90.8958 200.693 90.8958 201.6C90.8958 202.507 90.6931 203.307 90.2878 204C89.8931 204.683 89.3544 205.211 88.6718 205.584C87.9891 205.957 87.2318 206.144 86.3998 206.144ZM86.3998 204.864C86.9224 204.864 87.4131 204.741 87.8718 204.496C88.3304 204.251 88.6984 203.883 88.9758 203.392C89.2638 202.901 89.4078 202.304 89.4078 201.6C89.4078 200.896 89.2691 200.299 88.9918 199.808C88.7144 199.317 88.3518 198.955 87.9038 198.72C87.4558 198.475 86.9704 198.352 86.4478 198.352C85.9144 198.352 85.4238 198.475 84.9758 198.72C84.5384 198.955 84.1864 199.317 83.9198 199.808C83.6531 200.299 83.5198 200.896 83.5198 201.6C83.5198 202.315 83.6478 202.917 83.9038 203.408C84.1704 203.899 84.5224 204.267 84.9598 204.512C85.3971 204.747 85.8771 204.864 86.3998 204.864ZM94.2661 198.656C94.5221 198.155 94.8848 197.765 95.3541 197.488C95.8341 197.211 96.4155 197.072 97.0981 197.072V198.576H96.7141C95.0821 198.576 94.2661 199.461 94.2661 201.232V206H92.8101V197.232H94.2661V198.656ZM103.675 206L100.235 202.128V206H98.7789V194.16H100.235V201.12L103.611 197.232H105.643L101.515 201.6L105.659 206H103.675ZM115.013 201.28C115.013 201.557 114.997 201.851 114.965 202.16H107.957C108.011 203.024 108.304 203.701 108.837 204.192C109.381 204.672 110.037 204.912 110.805 204.912C111.435 204.912 111.957 204.768 112.373 204.48C112.8 204.181 113.099 203.787 113.269 203.296H114.837C114.603 204.139 114.133 204.827 113.429 205.36C112.725 205.883 111.851 206.144 110.805 206.144C109.973 206.144 109.227 205.957 108.565 205.584C107.915 205.211 107.403 204.683 107.029 204C106.656 203.307 106.469 202.507 106.469 201.6C106.469 200.693 106.651 199.899 107.013 199.216C107.376 198.533 107.883 198.011 108.533 197.648C109.195 197.275 109.952 197.088 110.805 197.088C111.637 197.088 112.373 197.269 113.013 197.632C113.653 197.995 114.144 198.496 114.485 199.136C114.837 199.765 115.013 200.48 115.013 201.28ZM113.509 200.976C113.509 200.421 113.387 199.947 113.141 199.552C112.896 199.147 112.56 198.843 112.133 198.64C111.717 198.427 111.253 198.32 110.741 198.32C110.005 198.32 109.376 198.555 108.853 199.024C108.341 199.493 108.048 200.144 107.973 200.976H113.509ZM118.391 198.656C118.647 198.155 119.01 197.765 119.479 197.488C119.959 197.211 120.54 197.072 121.223 197.072V198.576H120.839C119.207 198.576 118.391 199.461 118.391 201.232V206H116.935V197.232H118.391V198.656Z" fill="white"/>
<path d="M78.848 226.848V235.088C78.848 236.005 78.5653 236.741 78 237.296C77.4347 237.84 76.688 238.112 75.76 238.112C74.8213 238.112 74.0693 237.835 73.504 237.28C72.9387 236.715 72.656 235.947 72.656 234.976H74.112C74.1227 235.52 74.2613 235.963 74.528 236.304C74.8053 236.645 75.216 236.816 75.76 236.816C76.304 236.816 76.7093 236.656 76.976 236.336C77.2427 236.005 77.376 235.589 77.376 235.088V226.848H78.848ZM85.5404 238.144C84.719 238.144 83.9724 237.957 83.3004 237.584C82.639 237.211 82.1164 236.683 81.7324 236C81.359 235.307 81.1724 234.507 81.1724 233.6C81.1724 232.704 81.3644 231.915 81.7484 231.232C82.143 230.539 82.6764 230.011 83.3484 229.648C84.0204 229.275 84.7724 229.088 85.6044 229.088C86.4364 229.088 87.1884 229.275 87.8604 229.648C88.5324 230.011 89.0604 230.533 89.4444 231.216C89.839 231.899 90.0364 232.693 90.0364 233.6C90.0364 234.507 89.8337 235.307 89.4284 236C89.0337 236.683 88.495 237.211 87.8124 237.584C87.1297 237.957 86.3724 238.144 85.5404 238.144ZM85.5404 236.864C86.063 236.864 86.5537 236.741 87.0124 236.496C87.471 236.251 87.839 235.883 88.1164 235.392C88.4044 234.901 88.5484 234.304 88.5484 233.6C88.5484 232.896 88.4097 232.299 88.1324 231.808C87.855 231.317 87.4924 230.955 87.0444 230.72C86.5964 230.475 86.111 230.352 85.5884 230.352C85.055 230.352 84.5644 230.475 84.1164 230.72C83.679 230.955 83.327 231.317 83.0604 231.808C82.7937 232.299 82.6604 232.896 82.6604 233.6C82.6604 234.315 82.7884 234.917 83.0444 235.408C83.311 235.899 83.663 236.267 84.1004 236.512C84.5377 236.747 85.0177 236.864 85.5404 236.864ZM99.5028 229.232L94.2228 242.128H92.7188L94.4468 237.904L90.9108 229.232H92.5268L95.2788 236.336L97.9988 229.232H99.5028ZM111.104 238L108.448 233.44H106.688V238H105.232V226.848H108.832C109.675 226.848 110.384 226.992 110.96 227.28C111.547 227.568 111.984 227.957 112.272 228.448C112.56 228.939 112.704 229.499 112.704 230.128C112.704 230.896 112.48 231.573 112.032 232.16C111.595 232.747 110.933 233.136 110.048 233.328L112.848 238H111.104ZM106.688 232.272H108.832C109.621 232.272 110.213 232.08 110.608 231.696C111.003 231.301 111.2 230.779 111.2 230.128C111.2 229.467 111.003 228.955 110.608 228.592C110.224 228.229 109.632 228.048 108.832 228.048H106.688V232.272ZM122.742 229.232V238H121.286V236.704C121.009 237.152 120.62 237.504 120.118 237.76C119.628 238.005 119.084 238.128 118.486 238.128C117.804 238.128 117.19 237.989 116.646 237.712C116.102 237.424 115.67 236.997 115.35 236.432C115.041 235.867 114.886 235.179 114.886 234.368V229.232H116.326V234.176C116.326 235.04 116.545 235.707 116.982 236.176C117.42 236.635 118.017 236.864 118.774 236.864C119.553 236.864 120.166 236.624 120.614 236.144C121.062 235.664 121.286 234.965 121.286 234.048V229.232H122.742ZM129.473 229.072C130.539 229.072 131.403 229.397 132.065 230.048C132.726 230.688 133.057 231.616 133.057 232.832V238H131.617V233.04C131.617 232.165 131.398 231.499 130.961 231.04C130.523 230.571 129.926 230.336 129.169 230.336C128.401 230.336 127.787 230.576 127.329 231.056C126.881 231.536 126.657 232.235 126.657 233.152V238H125.201V229.232H126.657V230.48C126.945 230.032 127.334 229.685 127.825 229.44C128.326 229.195 128.875 229.072 129.473 229.072Z" fill="white"/>
<path d="M79.824 267.52H74.96L74.064 270H72.528L76.56 258.912H78.24L82.256 270H80.72L79.824 267.52ZM79.408 266.336L77.392 260.704L75.376 266.336H79.408ZM87.6293 261.088C88.3866 261.088 89.0479 261.253 89.6133 261.584C90.1893 261.915 90.6159 262.331 90.8933 262.832V261.232H92.3653V270.192C92.3653 270.992 92.1946 271.701 91.8533 272.32C91.5119 272.949 91.0213 273.44 90.3813 273.792C89.7519 274.144 89.0159 274.32 88.1733 274.32C87.0213 274.32 86.0613 274.048 85.2933 273.504C84.5253 272.96 84.0719 272.219 83.9333 271.28H85.3733C85.5333 271.813 85.8639 272.24 86.3653 272.56C86.8666 272.891 87.4693 273.056 88.1733 273.056C88.9733 273.056 89.6239 272.805 90.1253 272.304C90.6373 271.803 90.8933 271.099 90.8933 270.192V268.352C90.6053 268.864 90.1786 269.291 89.6133 269.632C89.0479 269.973 88.3866 270.144 87.6293 270.144C86.8506 270.144 86.1413 269.952 85.5013 269.568C84.8719 269.184 84.3759 268.645 84.0133 267.952C83.6506 267.259 83.4693 266.469 83.4693 265.584C83.4693 264.688 83.6506 263.904 84.0133 263.232C84.3759 262.549 84.8719 262.021 85.5013 261.648C86.1413 261.275 86.8506 261.088 87.6293 261.088ZM90.8933 265.6C90.8933 264.939 90.7599 264.363 90.4933 263.872C90.2266 263.381 89.8639 263.008 89.4053 262.752C88.9573 262.485 88.4613 262.352 87.9173 262.352C87.3733 262.352 86.8773 262.48 86.4293 262.736C85.9813 262.992 85.6239 263.365 85.3573 263.856C85.0906 264.347 84.9573 264.923 84.9573 265.584C84.9573 266.256 85.0906 266.843 85.3573 267.344C85.6239 267.835 85.9813 268.213 86.4293 268.48C86.8773 268.736 87.3733 268.864 87.9173 268.864C88.4613 268.864 88.9573 268.736 89.4053 268.48C89.8639 268.213 90.2266 267.835 90.4933 267.344C90.7599 266.843 90.8933 266.261 90.8933 265.6ZM95.5778 259.808C95.3004 259.808 95.0658 259.712 94.8738 259.52C94.6818 259.328 94.5858 259.093 94.5858 258.816C94.5858 258.539 94.6818 258.304 94.8738 258.112C95.0658 257.92 95.3004 257.824 95.5778 257.824C95.8444 257.824 96.0684 257.92 96.2498 258.112C96.4418 258.304 96.5378 258.539 96.5378 258.816C96.5378 259.093 96.4418 259.328 96.2498 259.52C96.0684 259.712 95.8444 259.808 95.5778 259.808ZM96.2818 261.232V270H94.8258V261.232H96.2818ZM100.219 258.16V270H98.7633V258.16H100.219ZM103.453 259.808C103.175 259.808 102.941 259.712 102.749 259.52C102.557 259.328 102.461 259.093 102.461 258.816C102.461 258.539 102.557 258.304 102.749 258.112C102.941 257.92 103.175 257.824 103.453 257.824C103.719 257.824 103.943 257.92 104.125 258.112C104.317 258.304 104.413 258.539 104.413 258.816C104.413 259.093 104.317 259.328 104.125 259.52C103.943 259.712 103.719 259.808 103.453 259.808ZM104.157 261.232V270H102.701V261.232H104.157ZM108.414 262.432V267.6C108.414 268.027 108.505 268.331 108.686 268.512C108.868 268.683 109.182 268.768 109.63 268.768H110.702V270H109.39C108.58 270 107.972 269.813 107.566 269.44C107.161 269.067 106.958 268.453 106.958 267.6V262.432H105.822V261.232H106.958V259.024H108.414V261.232H110.702V262.432H108.414ZM120.018 261.232L114.738 274.128H113.234L114.962 269.904L111.426 261.232H113.042L115.794 268.336L118.514 261.232H120.018Z" fill="white"/>
<path d="M82.448 290.848L78.24 302H76.56L72.352 290.848H73.904L77.408 300.464L80.912 290.848H82.448ZM84.7965 291.808C84.5192 291.808 84.2845 291.712 84.0925 291.52C83.9005 291.328 83.8045 291.093 83.8045 290.816C83.8045 290.539 83.9005 290.304 84.0925 290.112C84.2845 289.92 84.5192 289.824 84.7965 289.824C85.0632 289.824 85.2872 289.92 85.4685 290.112C85.6605 290.304 85.7565 290.539 85.7565 290.816C85.7565 291.093 85.6605 291.328 85.4685 291.52C85.2872 291.712 85.0632 291.808 84.7965 291.808ZM85.5005 293.232V302H84.0445V293.232H85.5005ZM91.086 302.144C90.414 302.144 89.8113 302.032 89.278 301.808C88.7447 301.573 88.3233 301.253 88.014 300.848C87.7047 300.432 87.534 299.957 87.502 299.424H89.006C89.0487 299.861 89.2513 300.219 89.614 300.496C89.9873 300.773 90.4727 300.912 91.07 300.912C91.6247 300.912 92.062 300.789 92.382 300.544C92.702 300.299 92.862 299.989 92.862 299.616C92.862 299.232 92.6913 298.949 92.35 298.768C92.0087 298.576 91.4807 298.389 90.766 298.208C90.1153 298.037 89.582 297.867 89.166 297.696C88.7607 297.515 88.4087 297.253 88.11 296.912C87.822 296.56 87.678 296.101 87.678 295.536C87.678 295.088 87.8113 294.677 88.078 294.304C88.3447 293.931 88.7233 293.637 89.214 293.424C89.7047 293.2 90.2647 293.088 90.894 293.088C91.8647 293.088 92.6487 293.333 93.246 293.824C93.8433 294.315 94.1633 294.987 94.206 295.84H92.75C92.718 295.381 92.5313 295.013 92.19 294.736C91.8593 294.459 91.4113 294.32 90.846 294.32C90.3233 294.32 89.9073 294.432 89.598 294.656C89.2887 294.88 89.134 295.173 89.134 295.536C89.134 295.824 89.2247 296.064 89.406 296.256C89.598 296.437 89.8327 296.587 90.11 296.704C90.398 296.811 90.7927 296.933 91.294 297.072C91.9233 297.243 92.4353 297.413 92.83 297.584C93.2247 297.744 93.5607 297.989 93.838 298.32C94.126 298.651 94.2753 299.083 94.286 299.616C94.286 300.096 94.1527 300.528 93.886 300.912C93.6193 301.296 93.2407 301.6 92.75 301.824C92.27 302.037 91.7153 302.144 91.086 302.144ZM97.0934 291.808C96.816 291.808 96.5814 291.712 96.3894 291.52C96.1974 291.328 96.1014 291.093 96.1014 290.816C96.1014 290.539 96.1974 290.304 96.3894 290.112C96.5814 289.92 96.816 289.824 97.0934 289.824C97.36 289.824 97.584 289.92 97.7654 290.112C97.9574 290.304 98.0534 290.539 98.0534 290.816C98.0534 291.093 97.9574 291.328 97.7654 291.52C97.584 291.712 97.36 291.808 97.0934 291.808ZM97.7974 293.232V302H96.3414V293.232H97.7974ZM104.103 302.144C103.282 302.144 102.535 301.957 101.863 301.584C101.202 301.211 100.679 300.683 100.295 300C99.9215 299.307 99.7349 298.507 99.7349 297.6C99.7349 296.704 99.9269 295.915 100.311 295.232C100.706 294.539 101.239 294.011 101.911 293.648C102.583 293.275 103.335 293.088 104.167 293.088C104.999 293.088 105.751 293.275 106.423 293.648C107.095 294.011 107.623 294.533 108.007 295.216C108.402 295.899 108.599 296.693 108.599 297.6C108.599 298.507 108.396 299.307 107.991 300C107.596 300.683 107.058 301.211 106.375 301.584C105.692 301.957 104.935 302.144 104.103 302.144ZM104.103 300.864C104.626 300.864 105.116 300.741 105.575 300.496C106.034 300.251 106.402 299.883 106.679 299.392C106.967 298.901 107.111 298.304 107.111 297.6C107.111 296.896 106.972 296.299 106.695 295.808C106.418 295.317 106.055 294.955 105.607 294.72C105.159 294.475 104.674 294.352 104.151 294.352C103.618 294.352 103.127 294.475 102.679 294.72C102.242 294.955 101.89 295.317 101.623 295.808C101.356 296.299 101.223 296.896 101.223 297.6C101.223 298.315 101.351 298.917 101.607 299.408C101.874 299.899 102.226 300.267 102.663 300.512C103.1 300.747 103.58 300.864 104.103 300.864ZM114.785 293.072C115.852 293.072 116.716 293.397 117.377 294.048C118.039 294.688 118.369 295.616 118.369 296.832V302H116.929V297.04C116.929 296.165 116.711 295.499 116.273 295.04C115.836 294.571 115.239 294.336 114.481 294.336C113.713 294.336 113.1 294.576 112.641 295.056C112.193 295.536 111.969 296.235 111.969 297.152V302H110.513V293.232H111.969V294.48C112.257 294.032 112.647 293.685 113.137 293.44C113.639 293.195 114.188 293.072 114.785 293.072ZM120.204 297.584C120.204 296.688 120.385 295.904 120.748 295.232C121.11 294.549 121.606 294.021 122.236 293.648C122.876 293.275 123.585 293.088 124.364 293.088C125.132 293.088 125.798 293.253 126.364 293.584C126.929 293.915 127.35 294.331 127.628 294.832V293.232H129.1V302H127.628V300.368C127.34 300.88 126.908 301.307 126.332 301.648C125.766 301.979 125.105 302.144 124.348 302.144C123.569 302.144 122.865 301.952 122.236 301.568C121.606 301.184 121.11 300.645 120.748 299.952C120.385 299.259 120.204 298.469 120.204 297.584ZM127.628 297.6C127.628 296.939 127.494 296.363 127.228 295.872C126.961 295.381 126.598 295.008 126.14 294.752C125.692 294.485 125.196 294.352 124.652 294.352C124.108 294.352 123.612 294.48 123.164 294.736C122.716 294.992 122.358 295.365 122.092 295.856C121.825 296.347 121.692 296.923 121.692 297.584C121.692 298.256 121.825 298.843 122.092 299.344C122.358 299.835 122.716 300.213 123.164 300.48C123.612 300.736 124.108 300.864 124.652 300.864C125.196 300.864 125.692 300.736 126.14 300.48C126.598 300.213 126.961 299.835 127.228 299.344C127.494 298.843 127.628 298.261 127.628 297.6ZM133.016 294.656C133.272 294.155 133.635 293.765 134.104 293.488C134.584 293.211 135.165 293.072 135.848 293.072V294.576H135.464C133.832 294.576 133.016 295.461 133.016 297.232V302H131.56V293.232H133.016V294.656ZM145.081 293.232L139.801 306.128H138.297L140.025 301.904L136.489 293.232H138.105L140.857 300.336L143.577 293.232H145.081Z" fill="white"/>
<path d="M78.816 328.256C79.2213 328.32 79.5893 328.485 79.92 328.752C80.2613 329.019 80.528 329.349 80.72 329.744C80.9227 330.139 81.024 330.56 81.024 331.008C81.024 331.573 80.88 332.085 80.592 332.544C80.304 332.992 79.8827 333.349 79.328 333.616C78.784 333.872 78.1387 334 77.392 334H73.232V322.848H77.232C77.9893 322.848 78.6347 322.976 79.168 323.232C79.7013 323.477 80.1013 323.813 80.368 324.24C80.6347 324.667 80.768 325.147 80.768 325.68C80.768 326.341 80.5867 326.891 80.224 327.328C79.872 327.755 79.4027 328.064 78.816 328.256ZM74.688 327.664H77.136C77.8187 327.664 78.3467 327.504 78.72 327.184C79.0933 326.864 79.28 326.421 79.28 325.856C79.28 325.291 79.0933 324.848 78.72 324.528C78.3467 324.208 77.808 324.048 77.104 324.048H74.688V327.664ZM77.264 332.8C77.9893 332.8 78.5547 332.629 78.96 332.288C79.3653 331.947 79.568 331.472 79.568 330.864C79.568 330.245 79.3547 329.76 78.928 329.408C78.5013 329.045 77.9307 328.864 77.216 328.864H74.688V332.8H77.264ZM82.5005 329.584C82.5005 328.688 82.6818 327.904 83.0445 327.232C83.4072 326.549 83.9032 326.021 84.5325 325.648C85.1725 325.275 85.8818 325.088 86.6605 325.088C87.4285 325.088 88.0952 325.253 88.6605 325.584C89.2258 325.915 89.6472 326.331 89.9245 326.832V325.232H91.3965V334H89.9245V332.368C89.6365 332.88 89.2045 333.307 88.6285 333.648C88.0632 333.979 87.4018 334.144 86.6445 334.144C85.8658 334.144 85.1618 333.952 84.5325 333.568C83.9032 333.184 83.4072 332.645 83.0445 331.952C82.6818 331.259 82.5005 330.469 82.5005 329.584ZM89.9245 329.6C89.9245 328.939 89.7912 328.363 89.5245 327.872C89.2578 327.381 88.8952 327.008 88.4365 326.752C87.9885 326.485 87.4925 326.352 86.9485 326.352C86.4045 326.352 85.9085 326.48 85.4605 326.736C85.0125 326.992 84.6552 327.365 84.3885 327.856C84.1218 328.347 83.9885 328.923 83.9885 329.584C83.9885 330.256 84.1218 330.843 84.3885 331.344C84.6552 331.835 85.0125 332.213 85.4605 332.48C85.9085 332.736 86.4045 332.864 86.9485 332.864C87.4925 332.864 87.9885 332.736 88.4365 332.48C88.8952 332.213 89.2578 331.835 89.5245 331.344C89.7912 330.843 89.9245 330.261 89.9245 329.6ZM95.313 322.16V334H93.857V322.16H95.313ZM97.2505 329.584C97.2505 328.688 97.4318 327.904 97.7945 327.232C98.1572 326.549 98.6532 326.021 99.2825 325.648C99.9225 325.275 100.637 325.088 101.427 325.088C102.109 325.088 102.744 325.248 103.331 325.568C103.917 325.877 104.365 326.288 104.675 326.8V322.16H106.147V334H104.675V332.352C104.387 332.875 103.96 333.307 103.395 333.648C102.829 333.979 102.168 334.144 101.411 334.144C100.632 334.144 99.9225 333.952 99.2825 333.568C98.6532 333.184 98.1572 332.645 97.7945 331.952C97.4318 331.259 97.2505 330.469 97.2505 329.584ZM104.675 329.6C104.675 328.939 104.541 328.363 104.275 327.872C104.008 327.381 103.645 327.008 103.187 326.752C102.739 326.485 102.243 326.352 101.699 326.352C101.155 326.352 100.659 326.48 100.211 326.736C99.7625 326.992 99.4052 327.365 99.1385 327.856C98.8718 328.347 98.7385 328.923 98.7385 329.584C98.7385 330.256 98.8718 330.843 99.1385 331.344C99.4052 331.835 99.7625 332.213 100.211 332.48C100.659 332.736 101.155 332.864 101.699 332.864C102.243 332.864 102.739 332.736 103.187 332.48C103.645 332.213 104.008 331.835 104.275 331.344C104.541 330.843 104.675 330.261 104.675 329.6Z" fill="white"/>
<defs>
<filter id="filter0_d_23_3094" x="0.237915" y="6.36829" width="334" height="416" filterUnits="userSpaceOnUse" color-interpolation-filters="sRGB">
<feFlood flood-opacity="0" result="BackgroundImageFix"/>
<feColorMatrix in="SourceAlpha" type="matrix" values="0 0 0 0 0 0 0 0 0 0 0 0 0 0 0 0 0 0 127 0" result="hardAlpha"/>
<feOffset dy="4"/>
<feGaussianBlur stdDeviation="20"/>
<feComposite in2="hardAlpha" operator="out"/>
<feColorMatrix type="matrix" values="0 0 0 0 1 0 0 0 0 0.863783 0 0 0 0 0.380833 0 0 0 1 0"/>
<feBlend mode="normal" in2="BackgroundImageFix" result="effect1_dropShadow_23_3094"/>
<feBlend mode="normal" in="SourceGraphic" in2="effect1_dropShadow_23_3094" result="shape"/>
</filter>
<filter id="filter1_d_23_3094" x="8.23792" y="336" width="333.762" height="86.3683" filterUnits="userSpaceOnUse" color-interpolation-filters="sRGB">
<feFlood flood-opacity="0" result="BackgroundImageFix"/>
<feColorMatrix in="SourceAlpha" type="matrix" values="0 0 0 0 0 0 0 0 0 0 0 0 0 0 0 0 0 0 127 0" result="hardAlpha"/>
<feOffset dy="4"/>
<feGaussianBlur stdDeviation="20"/>
<feComposite in2="hardAlpha" operator="out"/>
<feColorMatrix type="matrix" values="0 0 0 0 1 0 0 0 0 0.863783 0 0 0 0 0.380833 0 0 0 1 0"/>
<feBlend mode="normal" in2="BackgroundImageFix" result="effect1_dropShadow_23_3094"/>
<feBlend mode="normal" in="SourceGraphic" in2="effect1_dropShadow_23_3094" result="shape"/>
</filter>
<filter id="filter2_d_23_3094" x="0.237915" y="8" width="95.7621" height="406.368" filterUnits="userSpaceOnUse" color-interpolation-filters="sRGB">
<feFlood flood-opacity="0" result="BackgroundImageFix"/>
<feColorMatrix in="SourceAlpha" type="matrix" values="0 0 0 0 0 0 0 0 0 0 0 0 0 0 0 0 0 0 127 0" result="hardAlpha"/>
<feOffset dy="4"/>
<feGaussianBlur stdDeviation="20"/>
<feComposite in2="hardAlpha" operator="out"/>
<feColorMatrix type="matrix" values="0 0 0 0 1 0 0 0 0 0.863783 0 0 0 0 0.380833 0 0 0 1 0"/>
<feBlend mode="normal" in2="BackgroundImageFix" result="effect1_dropShadow_23_3094"/>
<feBlend mode="normal" in="SourceGraphic" in2="effect1_dropShadow_23_3094" result="shape"/>
</filter>
<filter id="filter3_d_23_3094" x="0.237915" y="328" width="103.762" height="94.3683" filterUnits="userSpaceOnUse" color-interpolation-filters="sRGB">
<feFlood flood-opacity="0" result="BackgroundImageFix"/>
<feColorMatrix in="SourceAlpha" type="matrix" values="0 0 0 0 0 0 0 0 0 0 0 0 0 0 0 0 0 0 127 0" result="hardAlpha"/>
<feOffset dy="4"/>
<feGaussianBlur stdDeviation="20"/>
<feComposite in2="hardAlpha" operator="out"/>
<feColorMatrix type="matrix" values="0 0 0 0 1 0 0 0 0 0.863783 0 0 0 0 0.380833 0 0 0 1 0"/>
<feBlend mode="normal" in2="BackgroundImageFix" result="effect1_dropShadow_23_3094"/>
<feBlend mode="normal" in="SourceGraphic" in2="effect1_dropShadow_23_3094" result="shape"/>
</filter>
<filter id="filter4_d_23_3094" x="16" y="0" width="334" height="416" filterUnits="userSpaceOnUse" color-interpolation-filters="sRGB">
<feFlood flood-opacity="0" result="BackgroundImageFix"/>
<feColorMatrix in="SourceAlpha" type="matrix" values="0 0 0 0 0 0 0 0 0 0 0 0 0 0 0 0 0 0 127 0" result="hardAlpha"/>
<feOffset dy="4"/>
<feGaussianBlur stdDeviation="20"/>
<feComposite in2="hardAlpha" operator="out"/>
<feColorMatrix type="matrix" values="0 0 0 0 1 0 0 0 0 0.863783 0 0 0 0 0.380833 0 0 0 1 0"/>
<feBlend mode="normal" in2="BackgroundImageFix" result="effect1_dropShadow_23_3094"/>
<feBlend mode="normal" in="SourceGraphic" in2="effect1_dropShadow_23_3094" result="shape"/>
</filter>
<linearGradient id="paint0_linear_23_3094" x1="183" y1="36" x2="183" y2="372" gradientUnits="userSpaceOnUse">
<stop stop-color="#343334"/>
<stop offset="1" stop-color="#805794"/>
</linearGradient>
</defs>
</svg>
